<svg xmlns="http://www.w3.org/2000/svg" width="256" height="256"><path fill-opacity=".506" d="M0 128.004v128.004l128.25-.254 128.25-.254.254-127.75L257.008 0H0v128.004m.485.496c0 70.4.119 99.053.265 63.672.146-35.38.146-92.98 0-128C.604 29.153.485 58.1.485 128.5" fill="#1976D2" fill-rule="evenodd"/><path fill-opacity=".206" d="M0 128.004v128.004l128.25-.254 128.25-.254.254-127.75L257.008 0H0v128.004m.485.496c0 70.4.119 99.053.265 63.672.146-35.38.146-92.98 0-128C.604 29.153.485 58.1.485 128.5M126 27.861c0 .474 1.173.637 2.606.363 1.6-.305 2.946.038 3.485.889.699 1.104.882 1.029.894-.363.011-1.336-.812-1.75-3.485-1.75-1.925 0-3.5.388-3.5.861m1.195 4.639c.02 1.65.244 2.204.498 1.231.254-.973.237-2.323-.037-3-.274-.677-.481.119-.461 1.769M111 34.709c-4.464 1.642-6.628 7.263-3.861 10.03 1.816 1.816 1.655 9.193-.213 9.785-.866.275-2.891 1.906-4.5 3.625L99.5 61.275l2.75-1.752c1.513-.964 2.75-2.079 2.75-2.477 0-.399 1.013-1.186 2.25-1.749 1.841-.838 2.23-1.782 2.139-5.188-.061-2.29-.398-4.452-.75-4.803-1.387-1.388-.525-2.509 1.519-1.975 2.532.662 7.756-1.315 9.714-3.676 1.233-1.486 1.016-1.655-2.127-1.655-1.925 0-4.06.675-4.745 1.5-1.572 1.894-3.621 1.929-4.334.073-.659-1.718 1.207-3.412 5.02-4.556 1.924-.578 2.181-.847.814-.852-1.1-.004-2.675.241-3.5.544m12.555 1.541c-.21.688-.636 2.721-.947 4.52-.46 2.656-.322 3.041.737 2.053.716-.67 1.095-2.301.842-3.626-.269-1.406.117-2.776.926-3.288 1.044-.661 1.07-.882.106-.894-.705-.008-1.454.548-1.664 1.235m15.023.286c-2.34 1.22-3.085 1.269-3.735.244-.555-.874-.817-.558-.828.996-.014 2.198.085 2.224 2.935.75 4.04-2.089 9.358-1.948 11.395.303 3.545 3.917.426 5.942-3.345 2.171-1.1-1.1-3.238-1.991-4.75-1.981-2.207.016-1.566.547 3.25 2.692 3.3 1.47 6.185 2.808 6.411 2.974.225.167-.407 1.205-1.405 2.309-.999 1.103-1.366 2.006-.816 2.006 1.911 0 4.31-3.675 4.295-6.579-.02-3.771-.893-5.055-4.32-6.358-3.76-1.43-5.624-1.333-9.087.473m-11.173 9.346c-3.024.604-3.053.662-1.25 2.543 1.609 1.679 1.845 1.713 1.845.269 0-.993 1.101-1.899 2.75-2.262 1.512-.334 3.2-.757 3.75-.941 1.7-.567-3.823-.263-7.095.391m1.674 3.701c.048 1.165.285 1.402.604.605.289-.722.253-1.585-.079-1.917-.332-.332-.568.258-.525 1.312m11.671-.625c2.184 2.519 1.351 4.478-2.88 6.776-4.436 2.408-5.521 2.237-6.903-1.086-.612-1.472-.699-.758-.276 2.268.508 3.629.356 4.316-.848 3.854-1.142-.438-1.368.109-1.021 2.471.395 2.693.558 2.821 1.448 1.146 3.151-5.928 10.181-10.301 16.94-10.537 3.382-.118 3.655-.24 1.29-.577-1.65-.235-4.35-1.627-6-3.093-1.65-1.465-2.437-2.015-1.75-1.222m-25.164 2.496l-2.914 2.382 3.722 1.555c2.047.856 5.006 2.47 6.575 3.587l2.854 2.032.688-4.072c.378-2.24.418-4.342.088-4.672-.329-.33-.599.321-.599 1.445 0 3.759-2.381 4.587-6.39 2.221-4.129-2.435-4.2-2.622-1.955-5.103 2.251-2.487 1.437-2.241-2.069.625M80 52.45c0 .798-.787 1.909-1.75 2.47-1.473.858-1.5 1.024-.174 1.05.866.016 2.632-1.095 3.924-2.47l2.349-2.5h-2.175C80.941 51 80 51.628 80 52.45m97.595 1.05c3.46 3.207 5.026 3.225 2.702.031-.988-1.357-2.608-2.482-3.599-2.5-1.487-.026-1.331.405.897 2.469M85.187 56c-1.448 1.65-3.354 3-4.236 3-1.203 0-1.498.729-1.177 2.911.321 2.188-.085 3.185-1.636 4.015-1.282.686-1.838 1.693-1.468 2.657.328.853.01 2.646-.705 3.983-.716 1.337-1.047 2.685-.736 2.997.311.311 1.685-1.88 3.054-4.869 2.751-6.01 8.599-13.022 13.217-15.85l3-1.837-3.34-.003c-2.463-.003-4.032.784-5.973 2.996m85.022.434c4.794 3.66 9.721 10.644 11.899 16.867 1.03 2.941 1.471 3.398 1.954 2.021.344-.978.039-2.364-.676-3.079-.716-.716-1.037-1.988-.715-2.828.334-.871-.332-2.382-1.55-3.517-1.535-1.43-1.963-2.681-1.52-4.444.491-1.956.233-2.454-1.27-2.454-1.037 0-3.07-1.35-4.518-3-1.72-1.96-3.58-3-5.367-3-2.636 0-2.573.123 1.763 3.434m-97.8-1.591C70.795 56.01 68.924 60 69.992 60c.554 0 1.008-.346 1.008-.768 0-.423 1.174-1.481 2.609-2.352 1.946-1.181 2.241-1.724 1.159-2.139-.797-.306-1.859-.26-2.359.102m80.341-.181c1.976.798 1.459 2.159-1 2.632-1.48.285-1.035.48 1.3.57 4.401.169 5.95 1.638 5.95 5.642 0 3.409-3.211 8.398-8.263 12.839L147.5 79.19l3.339-2.226C155.583 73.8 160 67.331 160 63.546c0-2.255-.94-4.065-3.298-6.35-1.813-1.758-3.726-3.16-4.25-3.117-.523.043-.389.306.298.583m32.691 1.809c2.351 1.852 3.874 1.98 3.314.279-.226-.687-1.501-1.376-2.833-1.529-2.345-.271-2.361-.231-.481 1.25m-13.652 5.757c2.316 2.6 4.211 5.187 4.211 5.75 0 2.81-4.252-.321-8.547-6.294l-2.025-2.816.108 2.459c.059 1.353.833 3.185 1.72 4.072s1.897 2.509 2.245 3.605c.348 1.095 1.734 2.268 3.081 2.606 1.348.338 3.247 1.577 4.221 2.752.974 1.176 2.743 2.689 3.931 3.363 3.567 2.024-3.862-11.499-8.932-16.26l-4.224-3.965 4.211 4.728m-84.865-.478L84.5 64.5l2.75-2.424C89.82 59.81 90.459 59 89.674 59c-.179 0-1.416 1.237-2.75 2.75m6.212-2.153c-.075.603-1.075 2.178-2.224 3.5-1.148 1.322-2.385 2.907-2.75 3.522C87.319 68.043 83 69.422 83 68.267c0-.477.563-1.498 1.25-2.269 1.044-1.17.992-1.208-.314-.232-.86.644-2.625 3.435-3.921 6.202C78.719 74.736 77.285 77 76.829 77c-.456 0-.829.423-.829.941 0 1.398 4.956-1.433 6.588-3.763.778-1.111 2.764-2.316 4.413-2.678C88.815 71.101 90 70.206 90 69.235c0-.883.937-2.604 2.082-3.823 1.312-1.396 1.918-3.085 1.637-4.564-.246-1.291-.508-1.854-.583-1.251m10.531 1.07c-1.258 1.258-.666 5.113 1.125 7.325 1.623 2.004 1.918 2.062 3.123.611.731-.882 2.238-1.603 3.347-1.603 1.11 0 2.651-.787 3.425-1.75 1.255-1.56 1.335-1.371.743 1.75-.861 4.533-1.334 5.251-3.031 4.6-.77-.296-1.399-.101-1.399.431 0 1.619 3.191 1.083 4.644-.781 1.27-1.629 1.539-1.542 3.886 1.25 1.402 1.668 2.323 3.803 2.074 4.808-.317 1.282.04 1.708 1.224 1.464 3.134-.646 1.802-6.534-2.488-11.007-5.429-5.66-14.324-9.447-16.673-7.098m42.583.799c-1.787.791-3.25 1.884-3.25 2.429 0 1.385 4.091 4.105 6.173 4.105.95 0 2.154.762 2.675 1.693.819 1.463 1.234 1.226 3.067-1.75 3.044-4.944 2.435-7.386-1.915-7.678-1.925-.13-4.963.411-6.75 1.201m-75.839 2.796c-2.873 2.633-3.655 4.178-4.054 8.007C65.782 77.778 68.385 88 70.361 88c2.301 0 2.505-1.079.914-4.832-2.971-7.008-1.632-17.607 2.638-20.886.873-.67 1.243-1.233.822-1.25-.42-.018-2.366 1.436-4.324 3.23m115.863-.883c1.706 1.58 2.8 3.933 3.262 7.012.726 4.841-.766 12.947-2.86 15.538-.933 1.155-.898 1.287.173.643.742-.447 2.003-2.221 2.803-3.942l1.454-3.13-.483 3.5-.484 3.5 1.386-3c.761-1.65 1.405-5.797 1.43-9.217.042-5.809-.187-6.448-3.488-9.75-1.944-1.943-4.034-3.533-4.646-3.533-.612 0 .042 1.07 1.453 2.379M196.5 64c-.34.55.11 1 1 1s1.34-.45 1-1c-.34-.55-.79-1-1-1-.21 0-.66.45-1 1M56.752 66.161c.501 1.914 3.971 3.483 5.073 2.293.371-.4.113-.929-.575-1.174-1.812-.647-1.533-2.067.5-2.544.962-.226.127-.396-1.856-.379-2.951.026-3.521.353-3.142 1.804m80.365 2.443c-3.305 3.755-4.15 5.445-3.916 7.834.192 1.952.926 3.164 2.045 3.376 1.243.236 1.572-.125 1.14-1.252-.607-1.581 3.916-8.562 5.548-8.562.458 0 1.068.9 1.356 2 .548 2.096 3.151 2.714 4.21 1 .34-.55-.309-1-1.441-1-1.281 0-2.072-.661-2.094-1.75-.02-.963-.62-2.804-1.335-4.092l-1.299-2.341-4.214 4.787M199 66.5c-2.338 2.489-2.339 2.5-.209 2.5 1.816 0 4.209-2.521 4.209-4.434 0-1.281-1.795-.413-4 1.934m-99-1.146c0 1.902 3.231 6.642 6.462 9.479 4.092 3.593 9.456 6.583 10.298 5.741.315-.316.125-.574-.422-.574-2.468 0-10.889-6.799-13.479-10.883-1.572-2.48-2.859-4.173-2.859-3.763m23.583.512c-.431.697-.513 1.537-.183 1.867.895.895 1.871-.421 1.387-1.871-.338-1.016-.574-1.016-1.204.004m7.772.651c-.313.816-.283 2.227.066 3.136.572 1.491.776 1.467 2.075-.25 1.852-2.446 1.846-3.058-.034-3.779-.875-.336-1.783.049-2.107.893m32.384 5.372c-.272 1.039-.106 2.502.368 3.25.586.925.867.321.878-1.889.017-3.638-.502-4.205-1.246-1.361M56 71.917c0 .504-1.237 1.368-2.75 1.921-1.513.552-2.012 1.04-1.111 1.083.902.043 2.702-.806 4-1.888 1.299-1.081 1.799-1.981 1.111-2-.687-.018-1.25.379-1.25.884m146-.107c0 1.453 3.761 3.462 5.305 2.834.79-.321.713-.513-.226-.565-.782-.043-2.244-.824-3.25-1.734-1.031-.933-1.829-1.166-1.829-.535M94 77.167c0 2.841.255 4.911.567 4.599.925-.925 1.16-9.766.26-9.766-.455 0-.827 2.325-.827 5.167m-3.792-1.491c-.845.339-.964.917-.346 1.671.521.634 1.153 2.278 1.406 3.653.299 1.629.507 1.019.596-1.75.075-2.338.024-4.214-.114-4.171-.138.043-.831.312-1.542.597m76.69 4.168c-.098 4.46-.136 4.517-.884 1.355-1.142-4.818-2.405-5.392-1.556-.707.398 2.196.964 4.382 1.258 4.857.823 1.332 2.252-1.532 2.269-4.549.008-1.485.741-3.107 1.629-3.604 1.401-.784 1.335-.976-.5-1.456-1.919-.502-2.123-.123-2.216 4.104m35.974-2.094c-1.243 1.586-1.208 1.621.378.378.963-.755 1.75-1.543 1.75-1.75 0-.823-.821-.294-2.128 1.372m-152.059-.067c.721.289 1.584.253 1.916-.079.332-.332-.258-.568-1.312-.525-1.165.048-1.402.285-.604.604M144 80.5c-1.375.786-2.024 1.445-1.441 1.465.582.019 1.932-.626 3-1.433 2.469-1.868 1.68-1.884-1.559-.032m41.478 1.569c-.361 1.138-2.079 2.936-3.817 3.996-1.739 1.06-2.564 1.929-1.834 1.931 1.585.005 7.173-5.385 7.173-6.919 0-1.76-.817-1.228-1.522.992M53 82.272c0 .7-1.447 3.062-3.215 5.25L46.569 91.5l4.966-4.42c2.731-2.432 5.176-4.593 5.435-4.803.258-.211-.379-.057-1.415.34-1.31.503-1.663.367-1.16-.447.398-.644.246-1.17-.336-1.17-.582 0-1.059.572-1.059 1.272m15-.837C68 83.036 70.138 87 71.001 87c.623 0 .418-1.222-.501-3-1.376-2.661-2.5-3.814-2.5-2.565m135.294.213c-.745.302.07 1.611 2.132 3.421 4.372 3.839 4.972 3.7 2.278-.527-2.296-3.602-2.438-3.695-4.41-2.894M74 84c.589 1.1 1.295 2 1.57 2 .275 0 .019-.9-.57-2s-1.295-2-1.57-2c-.275 0-.019.9.57 2m19.029-.039c-.809.512-1.211 1.191-.893 1.509.319.318 1.148-.108 1.844-.946 1.443-1.738 1.166-1.902-.951-.563m-31.95 1.622c.048 1.165.285 1.402.604.605.289-.722.253-1.585-.079-1.917-.332-.332-.568.258-.525 1.312M197 85.259c0 .693.9 1.822 2 2.509 1.1.687 2 1.02 2 .74 0-.279-.9-1.408-2-2.508-1.216-1.216-2-1.506-2-.741M77 86.393c0 .216.698.661 1.552.989.89.341 1.291.173.941-.393-.587-.951-2.493-1.406-2.493-.596m-19 1.666c0 .582.45.781 1 .441s1-.816 1-1.059S59.55 87 59 87s-1 .477-1 1.059m153.079 1.524c.048 1.165.285 1.402.604.605.289-.722.253-1.585-.079-1.917-.332-.332-.568.258-.525 1.312M207 89.378c0 .207.787.995 1.75 1.75 1.586 1.243 1.621 1.208.378-.378-1.307-1.666-2.128-2.195-2.128-1.372M53.507 90.989c-.35.566.051.734.941.393 1.732-.665 2.049-1.382.611-1.382-.518 0-1.216.445-1.552.989M204 91c.825.533 1.95.969 2.5.969s.325-.436-.5-.969c-.825-.533-1.95-.969-2.5-.969s-.325.436.5.969m-12.349 1.468c-.31.807-.227 1.676.185 1.931.412.254.814-.406.894-1.468.173-2.297-.298-2.499-1.079-.463m-92.999 16.368c1.016 1.56 3.081 4.372 4.587 6.25 4.101 5.112 3.653.794-.489-4.707-3.725-4.947-7.16-6.241-4.098-1.543m14.935-1.977c-.936 1.515 2.967 10.6 4.704 10.947 1.26.252 1.13-.682-.736-5.273-2.566-6.312-3.101-7.077-3.968-5.674m9.707 4.891c2.479 6.907 2.586 7.062 3.661 5.323.518-.838.138-3.024-.979-5.63-1.005-2.343-1.56-4.526-1.234-4.851.325-.326-.332-.592-1.46-.592h-2.051l2.063 5.75m5.687-3c2.169 7.093 3.305 9.364 4.226 8.443 1.233-1.233-2.213-11.193-3.872-11.193-.841 0-.946.815-.354 2.75m14.47.839c.936 4.99 2.632 8.411 4.169 8.411.97 0 .752-1.521-.86-6-2.378-6.61-4.369-8.061-3.309-2.411M152 112c0 4.667.333 6 1.5 6s1.5-1.333 1.5-6-.333-6-1.5-6-1.5 1.333-1.5 6m6.5-5c.34.55.816 1 1.059 1s.441-.45.441-1-.477-1-1.059-1-.781.45-.441 1m-2 5c-.34.55-.141 1 .441 1s1.059-.45 1.059-1-.198-1-.441-1-.719.45-1.059 1M33 137c0 4.667.333 6 1.5 6s1.5-1.333 1.5-6-.333-6-1.5-6-1.5 1.333-1.5 6m12.75.025c1.429 3.314 2.98 5.645 3.444 5.181C50.336 141.064 46.068 131 44.442 131c-.912 0-.526 1.776 1.308 6.025M57 137c0 3.333.444 6 1 6s1-2.667 1-6-.444-6-1-6-1 2.667-1 6m11-5.008c0 .955.73 1.931 6.366 8.508 4.216 4.92 3.335.062-.933-5.147-3.442-4.201-5.433-5.432-5.433-3.361M84 137c0 3.333.444 6 1 6s1-2.667 1-6-.444-6-1-6-1 2.667-1 6m15.59-1.005c1.326 2.747 2.424 5.56 2.44 6.25.018.744.426.577 1.002-.409 1.236-2.117-2.31-10.836-4.406-10.836-1.132 0-.922 1.084.964 4.995M107 137c0 4.667.333 6 1.5 6s1.5-1.333 1.5-6-.333-6-1.5-6-1.5 1.333-1.5 6m10-5.338c0 2.577 3.618 11.338 4.683 11.338.724 0 1.317-.185 1.317-.411 0-1.558-4.448-11.589-5.139-11.589-.473 0-.861.298-.861.662m9 .33c0 .955.73 1.931 6.366 8.508 4.216 4.92 3.335.062-.933-5.147-3.442-4.201-5.433-5.432-5.433-3.361m16-.33c0 2.577 3.618 11.338 4.683 11.338.724 0 1.317-.185 1.317-.411 0-1.558-4.448-11.589-5.139-11.589-.473 0-.861.298-.861.662m9.557 1.561c-2.049 2.925-1.973 6.09.193 8.051 1.648 1.491 1.75 1.238 1.75-4.345 0-3.261-.087-5.929-.193-5.929-.107 0-.894 1-1.75 2.223M164.5 137c0 4.133.389 6 1.25 6s1.25-1.867 1.25-6-.389-6-1.25-6-1.25 1.867-1.25 6m14.279.094c1.897 4.396 2.799 5.61 3.238 4.357.75-2.138-2.936-10.451-4.634-10.451-.825 0-.363 2.016 1.396 6.094M186 137c0 4.133.389 6 1.25 6s1.25-1.867 1.25-6-.389-6-1.25-6-1.25 1.867-1.25 6m7 0c0 3.333.444 6 1 6s1-2.667 1-6-.444-6-1-6-1 2.667-1 6m11-5.008c0 .955.73 1.931 6.366 8.508 4.228 4.934 3.299.148-.986-5.082-3.509-4.281-5.38-5.473-5.38-3.426M220 137c0 4.132.389 6.001 1.25 6.002.899.001 1.155-1.684.911-6-.44-7.799-2.161-7.8-2.161-.002m-182.457-1.069c-.317.512-.118 1.213.441 1.559.559.345 1.016-.074 1.016-.931 0-1.757-.6-2.015-1.457-.628m120.813 4.441c.088 1.45.63 2.186 1.394 1.893 1.71-.655 1.588-4.265-.144-4.265-.841 0-1.337.941-1.25 2.372M63.5 142c-.34.55-.141 1 .441 1S65 142.55 65 142s-.198-1-.441-1-.719.45-1.059 1m108 0c-.34.55-.141 1 .441 1s1.059-.45 1.059-1-.198-1-.441-1-.719.45-1.059 1m28 0c-.34.55-.141 1 .441 1s1.059-.45 1.059-1-.198-1-.441-1-.719.45-1.059 1M95.75 153.75c17.738.153 46.763.153 64.5 0 17.738-.154 3.225-.279-32.25-.279s-49.987.125-32.25.279M222 157.09c0 .366.622 1.182 1.383 1.813 1.071.889 1.523.785 2-.459.875-2.279.838-2.336-1.383-2.169-1.1.083-2 .45-2 .815m-187 2.124c0 .982.342 1.786.759 1.786.418 0 1.262-.804 1.875-1.786.922-1.476.79-1.785-.759-1.785-1.133 0-1.875.706-1.875 1.785m-1.708 6.536c-.356.963-1.116 2.063-1.69 2.446-.574.382-.769.971-.432 1.307.336.337 1.592-.764 2.789-2.445 1.197-1.682 1.682-3.058 1.078-3.058-.605 0-1.39.787-1.745 1.75m2.328 1.859c-1.584 1.905-2.597 3.747-2.25 4.094.346.347.63.105.63-.536 0-.642.606-1.167 1.347-1.167s1.872-1.012 2.513-2.25c.989-1.908 1.079-1.528.592 2.497-.315 2.611-.225 5.311.2 5.999.426.689.635 2.603.466 4.253-.576 5.597.856 1.893 1.725-4.462.664-4.851.533-6.98-.563-9.177-.784-1.573-1.506-2.828-1.603-2.788-.097.04-1.473 1.631-3.057 3.537m188.4-2.085c.696.838 1.471 1.318 1.723 1.067.693-.694-.716-2.591-1.924-2.591-.664 0-.588.574.201 1.524m-11.205 3.596c1.491 2.468 2.01 4.536 1.629 6.5-.408 2.106.183 4.012 2.2 7.096 3.101 4.738 4.106 5.103 1.921.696-1.911-3.853-3.174-13.412-1.773-13.412.577 0 1.367 2.971 1.756 6.603.454 4.241 1.011 6.119 1.557 5.25.467-.744.607-2.131.311-3.083-.296-.951-.121-2.474.388-3.384.577-1.03.546-2.894-.08-4.935-.918-2.989-1.215-3.184-3.361-2.206-1.906.868-2.773.708-4.545-.836l-2.19-1.909 2.187 3.62m8.906-1.08c.293 1.121.777 1.795 1.075 1.497.298-.298 1.478.24 2.623 1.195 1.144.955.759.281-.856-1.498-3.461-3.811-3.535-3.842-2.842-1.194m-23.155 1.858c-1.17.458-1.511 1.018-.863 1.418.589.364 1.626-.008 2.306-.827 1.37-1.65 1.317-1.672-1.443-.591m4.753 1.352c-2.294 5.061-3.073 8.596-2.108 9.561.633.633.591 1.69-.118 3.016-.601 1.123-1.073 3.309-1.049 4.857l.044 2.816 1.829-3.5c2.211-4.232 3.781-9.31 2.164-7-.888 1.268-1.071 1.191-1.181-.5-.203-3.116.196-5.638 1.334-8.431l1.047-2.569.76 2.5.76 2.5.099-2.75c.122-3.367-2.14-3.683-3.581-.5m6.318-1.222c-.259.81-.753 3.478-1.099 5.93-.774 5.492-3.64 12.144-6.437 14.941-1.156 1.156-1.655 2.101-1.111 2.101 1.413 0 7.956-9.169 7.985-11.191.014-.93.511-1.992 1.106-2.359.603-.373.805-1.768.457-3.155-.343-1.367-.18-3.021.362-3.674.591-.712.63-1.764.097-2.627-.77-1.245-.953-1.24-1.36.034M194 172.059c0 .582.45.781 1 .441s1-.816 1-1.059-.45-.441-1-.441-1 .477-1 1.059M42.379 177.25c-.578 2.887-1.437 6.15-1.909 7.25-.843 1.965-.825 1.967 1.058.1 2.878-2.856 4.007-5.739 3.659-9.35-.462-4.784-1.614-3.963-2.808 2m6.174-1.335c-.322.521-.121 1.234.447 1.585.568.351.785 1.039.482 1.528-1.22 1.975 6.701 11.983 9.464 11.957.927-.009.554-.52-.925-1.269-2.847-1.44-6.98-8.172-7.005-11.407-.018-2.41-1.54-3.889-2.463-2.394m12.447.798c.825.306 2.175 1.058 3 1.671 1.303.97 1.32.887.128-.634-.755-.963-2.105-1.714-3-1.671-1.362.066-1.383.17-.128.634m144.079.87c.048 1.165.285 1.402.604.605.289-.722.253-1.585-.079-1.917-.332-.332-.568.258-.525 1.312M53.598 179.5c1.015 4.623 4.46 9.842 5.686 8.616.708-.708.649-1.491-.187-2.499-.67-.808-1.138-2.065-1.039-2.793.369-2.73-.086-5.824-.857-5.824-.44 0-.608 1.636-.375 3.636.295 2.524.08 3.424-.701 2.941-.619-.382-1.132-1.456-1.14-2.386-.009-.93-.472-2.366-1.031-3.191-.742-1.098-.838-.695-.356 1.5m-8.845 5.476c-3.01 3.515-3.436 5.083-2.337 8.594.59 1.886 1.638 3.43 2.329 3.43.69 0 2.155.9 3.255 2s2.563 2.003 3.25 2.007c.688.003 2.6.9 4.25 1.993 4.784 3.168 4.811 2.328.066-2.046-4.28-3.945-9.027-12.071-8.309-14.224.197-.591 1.777 1.441 3.512 4.515 2.78 4.926 5.231 7.898 5.231 6.344 0-1.193-4.427-8.302-6.993-11.228-2.585-2.95-2.843-3.034-4.254-1.385m166.03.8c-3.09 3.312-7.783 10.752-7.783 12.339 0 1.493 3.359-2.79 6.508-8.298 1.696-2.966 2.468-3.691 2.468-2.317 0 1.1-1.119 3.957-2.486 6.349-1.367 2.391-2.192 4.823-1.834 5.404.368.595.179.763-.432.385a1.287 1.287 0 00-1.764.427c-.373.603-2.092 1.959-3.819 3.012-1.728 1.054-2.537 1.917-1.799 1.919.739.002 2.487-.896 3.885-1.996 1.399-1.1 3.157-2 3.908-2 .751 0 2.265-.9 3.365-2s2.585-2 3.299-2c.715 0 1.84-1.494 2.5-3.321 1.526-4.221 1.598-3.753-1.137-7.459l-2.337-3.168-2.542 2.724m-146.171 5.043c-.279.451.764.633 2.317.405 2.109-.31 3.235.172 4.447 1.903 2.109 3.01 2.062 4.853-.126 4.952-1.045.047-1.247.282-.5.583 1.848.746 1.527 2.414-.976 5.079-1.772 1.885-1.866 2.232-.463 1.693C71.528 204.583 74 199.9 74 196.55c0-1.403-.9-3.45-2-4.55-2.006-2.006-6.44-2.715-7.388-1.181m122.422 1.865c-1.558 1.98-1.952 3.489-1.501 5.75.631 3.167 5.556 8.597 7.733 8.526.679-.022.008-.706-1.491-1.519-4.23-2.296-6.397-7.098-2.775-6.151 2.828.739 2.487-.154-.491-1.287-2.244-.853-2.377-1.199-1.333-3.49.673-1.476 2.451-2.918 4.241-3.438 3.042-.883 3.047-.896.406-.985-1.784-.06-3.383.806-4.789 2.594M77 199.464c0 2.281 1.147 4.536 2.307 4.536.731 0 .696-.397-.107-1.2-2.141-2.141-1.269-2.891 1.36-1.169 1.971 1.292 2.258 1.889 1.25 2.599-1.039.732-1.013.842.128.534 2.554-.691 2.049-2.214-1.484-4.468-2.523-1.61-3.454-1.834-3.454-.832m101 1.357c-3.185 2.245-2.901 2.353 1.5.572.825-.334 1.5-.117 1.5.481s-1.146 1.376-2.547 1.727c-1.4.352-2.334.851-2.075 1.11.89.89 4.625-.847 5.553-2.583 1.719-3.21-.285-3.876-3.931-1.307m-6 2.821c0 .537.7 1.849 1.555 2.917 1.467 1.83 1.487 1.798.365-.559-1.458-3.061-1.92-3.628-1.92-2.358m-121.595 2.216c2.038 2.292 2.595 2.588 2.595 1.383 0-.418-1.013-1.382-2.25-2.142-2.242-1.377-2.243-1.375-.345.759m156.784.181c-1.204 1.121-2.189 2.325-2.189 2.674 0 .35 1.125-.421 2.5-1.713 2.345-2.203 2.926-3 2.189-3-.172 0-1.297.918-2.5 2.039m-144.376 1.644c.721.289 1.584.253 1.916-.079.332-.332-.258-.568-1.312-.525-1.165.048-1.402.285-.604.604m133 0c.721.289 1.584.253 1.916-.079.332-.332-.258-.568-1.312-.525-1.165.048-1.402.285-.604.604M82.405 210.25L80.5 212.5l2.25-1.905c2.114-1.79 2.705-2.595 1.905-2.595-.19 0-1.202 1.012-2.25 2.25M89 209c-.901.582-1.025.975-.309.985.655.008 1.469-.435 1.809-.985.767-1.242.421-1.242-1.5 0m79.733.124c.679.684 1.486.991 1.793.683.308-.308-.247-.867-1.233-1.243-1.425-.542-1.54-.428-.56.56m-112.681.929c1.336.846 8.803 1.4 7.865.585-.23-.2-2.419-.619-4.865-.932-2.878-.368-3.937-.245-3 .347M175 209.378c0 .207.787.995 1.75 1.75 1.586 1.243 1.621 1.208.378-.378-1.307-1.666-2.128-2.195-2.128-1.372m21.762 1.329c1.244.239 3.044.23 4-.02s-.062-.446-2.262-.435c-2.2.011-2.982.216-1.738.455" fill="#1976D2" fill-rule="evenodd"/><path fill-opacity=".37" d="M0 128.004v128.004l128.25-.254 128.25-.254.254-127.75L257.008 0H0v128.004m.485.496c0 70.4.119 99.053.265 63.672.146-35.38.146-92.98 0-128C.604 29.153.485 58.1.485 128.5M127.192 26.86c-.873.554-1.075 1.758-.607 3.623.54 2.152.236 3.162-1.325 4.405-1.115.887-2.328 3.318-2.697 5.404-.636 3.605-.571 3.73 1.333 2.541 1.478-.923 1.724-1.585.941-2.529-1.648-1.986-.254-4.129 3.366-5.173 1.813-.523 2.51-.991 1.547-1.041-1.258-.065-1.75-.934-1.75-3.09 0-3.145 1.666-3.934 3.8-1.8.933.933 1.2.846 1.2-.393 0-2.365-3.368-3.494-5.808-1.947m-17.962 8.691c-3.745 2.624-4.612 5.218-2.711 8.118.913 1.394 1.419 3.462 1.122 4.595-.296 1.133-.096 2.887.446 3.898.717 1.341.636 1.839-.302 1.843-2.179.008-8.785 6.771-8.785 8.994 0 4.931 7 13.03 14.674 16.977 4.589 2.36 12.475 2.512 12.923.249.139-.701.024-.814-.255-.25-.88 1.774-7.44 1.116-12.104-1.213-5.185-2.589-12.779-10.581-13.465-14.17-.627-3.277.458-4.806 4.427-6.244 1.815-.658 2.711-1.23 1.991-1.272-3.155-.183.312-2.076 3.803-2.076 5.004 0 8.828 1.481 12.246 4.741 1.506 1.437 3.002 2.35 3.323 2.029.321-.321.889-3.663 1.261-7.427l.676-6.843 1.311 6.356c1.251 6.064.943 8.981-.673 6.367-.414-.67-.753 1.074-.753 3.875 0 3.757.213 4.517.814 2.893 1.634-4.417 5.086-8.102 9.856-10.519 5.337-2.704 9.875-3.137 13.261-1.263 2.141 1.184 2.125 1.221-.816 1.881l-3 .673 3.316.119c4.926.175 7.184 1.748 7.184 5.003 0 8.544-18.503 22.357-25.779 19.246-2.528-1.081-2.583-1.056-.78.353 2.777 2.169 5.254 1.895 12.081-1.335 10.2-4.825 18.321-15.836 15.529-21.053-1.474-2.755-8.399-7.096-11.32-7.096-1.493 0-4.104-1.253-5.946-2.853-5.459-4.742-7.402-5.388-13.936-4.629-4.537.526-7.314 1.602-11.642 4.511-4.16 2.797-6.021 3.54-6.945 2.773-1.538-1.276-1.655-4.441-.197-5.342.697-.431.468-1.318-.661-2.567-1.671-1.845-1.625-1.887 1.381-1.286 2.256.451 4.084.019 6.662-1.574 4.359-2.694 4.46-3.675.469-4.552-2.416-.53-3.513-.217-5.06 1.443-2.069 2.221-3.856 1.985-3.856-.508 0-1.927 4.75-3.682 7.961-2.941 1.922.443 2.175.339 1.039-.429-2.209-1.495-6.245-1.263-8.77.505m23.52.111c.688.278 1.25 1.367 1.25 2.421 0 2.276.82 2.368 3.441.385 2.855-2.159 8.184-1.843 10.659.632 1.299 1.299 1.744 2.456 1.167 3.033-1.245 1.245-4.267.013-4.267-1.74 0-.942-1.209-1.393-3.735-1.393h-3.735l6.428 3.136 6.427 3.136-2.748 2.364c-1.512 1.3-2.239 2.364-1.616 2.364.623 0 2.494-1.361 4.158-3.025 2.441-2.441 2.896-3.552 2.357-5.75-.957-3.904-2.697-5.303-7.377-5.931-2.962-.397-4.865-.062-6.782 1.195-2.439 1.598-2.743 1.609-3.571.129-.498-.89-1.446-1.582-2.106-1.539-.881.058-.867.213.05.583m-2.083 11.005c-1.083 1.082-.769 4.153.811 7.935l1.478 3.537 4.272-2.547c2.35-1.401 4.272-3.102 4.272-3.78 0-2.788-8.943-7.036-10.833-5.145m-9.348 1.841c-1.739.731-3.655 2.25-4.257 3.376-.947 1.77-.694 2.255 1.872 3.582 5.34 2.761 7.066 1.665 7.066-4.489 0-3.673-.806-4.098-4.681-2.469m-41.764 4.048c-1.316 2.009-2.357 2.49-4.864 2.25-2.513-.241-3.4.172-4.178 1.944-.543 1.237-1.443 2.257-2 2.265-.557.009-.361.428.436.932 1.029.652 2.1.213 3.702-1.515 1.239-1.338 3.287-2.446 4.551-2.464C79.253 55.94 85 51.945 85 50.548c0-1.654-4.015-.173-5.445 2.008M175 50.826c0 1.519 4.605 5.174 6.564 5.209 2.199.041 7.065 2.503 6.686 3.384-.137.32-.025.581.25.581h1.568c.588 0 .118-1.335-1.044-2.966-1.766-2.48-2.594-2.87-5.053-2.378-2.29.458-3.093.174-3.633-1.284-1.046-2.829-5.338-4.876-5.338-2.546m-86.5 2.229c-1.65.481-3.45 1.903-4 3.16-.55 1.257-2.052 2.434-3.338 2.616-1.881.266-2.226.777-1.766 2.61.389 1.55-.082 2.87-1.474 4.129-1.13 1.023-1.84 2.635-1.587 3.604.252.964-.123 2.235-.834 2.825-.992.823-1.045 1.877-.228 4.539.967 3.149 1.216 3.329 2.724 1.964.913-.826 2.01-1.502 2.438-1.502.427 0 1.662-1.125 2.744-2.5 1.132-1.44 2.995-2.5 4.394-2.5 1.76 0 2.427-.549 2.427-2 0-1.1.84-2.84 1.867-3.867 1.97-1.97 3.41-8.133 1.901-8.133-.487 0-.58-.495-.206-1.1.484-.783.141-.806-1.191-.079-3.326 1.815-9.2 8.539-12.385 14.179-3.658 6.475-2.944 2.709.815-4.304 2.467-4.602 6.88-9.263 12.208-12.894 2.239-1.526 2.289-1.693.491-1.659-1.1.02-3.35.431-5 .912M165 53c0 .55.46 1 1.022 1 .563 0 3.069 1.887 5.571 4.192 4.634 4.272 8.661 10.311 9.873 14.808.371 1.375-.666.25-2.305-2.5-1.638-2.75-5.13-7.025-7.758-9.5l-4.779-4.5 4.818 5.5c3.913 4.466 4.488 5.566 3.055 5.849-1.865.369-5.728-3.558-7.721-7.849l-1.162-2.5-.383 2.854c-.257 1.908.305 3.587 1.693 5.065 1.142 1.215 2.076 3.193 2.076 4.395 0 1.657.597 2.186 2.466 2.186 1.356 0 3.806 1.237 5.445 2.75 5.963 5.504 5.819 5.462 7.018 2.024.741-2.126.768-3.477.084-4.161-.557-.557-1.013-2.225-1.013-3.706 0-1.554-.682-2.955-1.612-3.312-1.125-.431-1.483-1.494-1.186-3.519.368-2.504.052-2.975-2.308-3.447-1.545-.309-3.01-1.421-3.371-2.557-.388-1.221-2.087-2.412-4.331-3.035C165.588 51.758 165 51.754 165 53m-77.422 9.18C83.702 66.708 83.221 68 85.413 68 86.773 68 93 60.451 93 58.803c0-1.834-2.06-.551-5.422 3.377M109 58.383c0 .211.901.619 2.001.907 1.101.288 1.75.115 1.441-.383-.538-.871-3.442-1.313-3.442-.524m36.507.606c-.35.566.051.734.941.393 1.732-.665 2.049-1.382.611-1.382-.518 0-1.216.445-1.552.989m3.545 1.181c-5.13 1.473-11.932 6.769-14.651 11.408-2.906 4.96-3.021 7.02-.467 8.387 2.799 1.498 3.066 1.341 3.066-1.791 0-1.66.954-3.722 2.314-5 2.692-2.529 3.686-2.733 3.686-.757 0 .779.563 1.618 1.25 1.865 1.858.666 4.75-1.124 4.75-2.94 0-1.317-.263-1.369-1.542-.307-1.76 1.46-4.159-.092-3.012-1.948 1.659-2.684 7.977-.353 6.869 2.535-.958 2.497.37 1.44 3.049-2.426 3.122-4.505 3.369-7.733.702-9.161-1.064-.569-2.077-.994-2.25-.945l-3.764 1.08m-77.177 2.269c-4.103 2.788-6.404 7.082-7.268 13.561-.37 2.775-.28 3.747.234 2.536.69-1.621.946-1.272 1.472 2 .844 5.243 3.128 8.423 5.589 7.779 1.884-.492 1.884-.572.029-4.658-1.125-2.479-1.843-6.175-1.778-9.157l.109-5 .747 5.848c.819 6.407 3.199 10.431 7.384 12.482 2.326 1.14 3.063 1.101 5.16-.273 1.346-.882 2.433-2.155 2.417-2.83-.017-.675-.489-.44-1.05.523-.561.963-2.149 1.75-3.529 1.75-1.523 0-2.25-.419-1.85-1.067.393-.635-.061-.939-1.122-.75-1.118.199-2.644-.947-4.1-3.081-2.987-4.377-3.187-12.977-.427-18.391C74.933 61.67 75.712 60 75.624 60c-.088 0-1.775 1.098-3.749 2.439m30.62-.424c-.639 2.014 2.112 7.584 4.88 9.881 1.084.9 1.261.652.897-1.253-.367-1.923.039-2.469 2.131-2.869 3.158-.604 5.801 1.827 3.109 2.86-1.003.385-2.08.079-2.598-.738-.722-1.14-.886-1.098-.899.232-.008.895.712 2.23 1.6 2.967 1.38 1.146 1.869 1.026 3.371-.829l1.756-2.169 2.129 2.266c1.171 1.246 2.129 3.249 2.129 4.451 0 2.46 3.424 3.129 4.302.841.846-2.204-2.771-9.03-6.41-12.098-6.629-5.589-15.162-7.433-16.397-3.542m83.058 1.735c.789 1.513 1.469 3.875 1.511 5.25.071 2.325.143 2.36 1.02.5.75-1.589.829-1.383.385 1-1.549 8.319-2.409 10.807-4.507 13.04-1.882 2.004-2.557 2.216-3.812 1.198-1.276-1.037-1.418-.953-.869.512 1.063 2.836-4.107 2.343-5.25-.5-.678-1.688-.92-1.819-.968-.523-.034.95 1.001 2.424 2.302 3.277 4.218 2.763 9.561-.826 12.186-8.188 1.143-3.204 1.368-3.409 1.405-1.277.024 1.396-.787 4.169-1.804 6.162l-1.847 3.624 2.238.428c1.755.335 2.587-.302 3.848-2.946.885-1.856 1.654-4.372 1.709-5.591.094-2.09.145-2.074.9.284.663 2.07.814 1.726.878-2 .095-5.484-2.671-11.905-6.387-14.829-3.714-2.921-4.666-2.733-2.938.579M55 63.731C55 65.276 58.615 69 60.115 69c2.161 0 2.421-1.064.685-2.8-.933-.933-.674-1.2 1.167-1.2 4.004 0 1.21-1.404-3.005-1.509-2.179-.055-3.962.053-3.962.24m69.015.436c-.008.916-.514 1.833-1.125 2.036-.715.239-.581.808.378 1.605 1.22 1.012 1.578.89 1.987-.676.275-1.051.112-2.523-.362-3.271-.683-1.078-.866-1.015-.878.306m7.799 1.083c-.807 1.281-1.18 3.42-.865 4.968l.551 2.718 2.201-3.379c1.869-2.87 1.973-3.468.687-3.962-.833-.319-1.235-1.034-.892-1.588.342-.554.422-1.007.178-1.007s-1.081 1.013-1.86 2.25m64.536-1c-.258.412.324.75 1.291.75 1.368 0 1.492.267.559 1.2-1.869 1.869-1.428 2.8 1.325 2.8 1.79 0 2.808-.746 3.5-2.565.536-1.411.975-2.682.975-2.825 0-.636-7.232-.031-7.65.64M143 66c0 .55.477 1 1.059 1s.781-.45.441-1-.816-1-1.059-1-.441.45-.441 1m20.955 4.5c-.601 5.907-.056 11.141 1.546 14.867.754 1.754.877 1.729 2.018-.402.668-1.248 1.018-3.02.778-3.937-.24-.917.27-2.254 1.133-2.97 2.103-1.745 1.977-2.718-.43-3.348-1.751-.458-2.015-.004-2.122 3.634-.11 3.748-.207 3.569-.992-1.821-1.003-6.886-1.641-8.877-1.931-6.023m-69.993 3c-.057 2.2-.522 4.9-1.034 6-.742 1.591-.874 1.264-.648-1.599.239-3.041.004-3.527-1.514-3.13-2.506.656-3.194 2.127-1.329 2.843.859.33 1.595 1.789 1.633 3.243.039 1.454.398 3.474.797 4.49.662 1.68.847 1.702 2.057.244.732-.881 1.39-3.512 1.464-5.847.073-2.334.451-4.74.84-5.347.39-.606.062-1.956-.728-3-1.328-1.754-1.444-1.595-1.538 2.103m33.672-1.5c.337 1.375 1.196 3.85 1.908 5.5l1.295 3 .081-3.417c.045-1.879-.229-3.106-.608-2.726-.38.38-1.275-.558-1.99-2.083-1.196-2.552-1.251-2.574-.686-.274m-74.134.814c-2.484 1.326-2.681 1.668-1.144 1.988 1.021.212 2.349-.107 2.95-.708C55.908 73.492 57.21 73 58.2 73c.99 0 1.8-.45 1.8-1 0-1.429-3.004-1.052-6.5.814M199 71.427c0 .687 6.181 3.573 7.654 3.573.74 0 1.346-.45 1.346-1s-.873-1-1.941-1-2.219-.45-2.559-1c-.592-.958-4.5-1.456-4.5-.573M48.594 77.313c.853.477 2.616.6 3.917.274 1.302-.327 2.646-.143 2.987.409.341.552 1.381.99 2.311.974 3.828-.069-2.407-2.433-6.537-2.479-2.897-.032-3.74.227-2.678.822m149.278-.063c1.503 1.916 4.649 2.333 5.63.746.341-.552 1.685-.736 2.987-.409 1.301.326 3.064.203 3.917-.274 1.987-1.112-6.145-.991-8.669.129-1.075.477-2.44.25-3.5-.58-1.571-1.232-1.606-1.195-.365.388M51.797 84.006c-.937 1.647-2.4 2.994-3.25 2.994-.851 0-1.553.787-1.561 1.75-.007.963-.285 2.763-.616 4-.527 1.967-.226 2.25 2.391 2.25 1.647 0 3.554-.675 4.239-1.5s2.315-1.5 3.622-1.5C58.063 92 59 91.412 59 90.508c0-.82.9-2.053 2-2.74 1.1-.687 1.986-2.153 1.968-3.259-.03-1.883-.115-1.899-1.36-.259-.731.963-1.826 1.75-2.433 1.75-.608 0-1.556.844-2.108 1.875-.552 1.031-1.969 2.128-3.15 2.436-2.105.551-2.1.51.219-2.094 1.86-2.09 1.937-2.353.364-1.234-1.1.782-3.074 2.343-4.386 3.47-2.342 2.01-2.366 2.011-1.344.047.572-1.1 3.109-3.546 5.635-5.436 2.527-1.89 4.595-3.577 4.595-3.75 0-.173-1.237-.311-2.75-.308-2.005.005-3.212.818-4.453 3M200.55 81.8c.522.44 3.087 2.495 5.7 4.567s4.75 4.257 4.75 4.855c0 .598-.9.273-2-.722-1.199-1.085-2-1.333-2-.62 0 1.532-2.905.04-6.614-3.398-1.473-1.365-3.062-2.482-3.532-2.482-1.583 0-.87 1.625 1.687 3.849 1.398 1.215 2.271 2.646 1.941 3.18-.336.544.692.971 2.337.971 1.615 0 3.496.675 4.181 1.5s2.477 1.5 3.984 1.5c2.706 0 2.726-.047 1.67-4-.592-2.219-1.682-4-2.447-4-.76 0-1.89-1.35-2.513-3-.96-2.542-1.664-3-4.613-3-1.915 0-3.053.36-2.531.8M66.031 85.5c0 .55.436 1.675.969 2.5.533.825.969 1.05.969.5S67.533 86.825 67 86c-.533-.825-.969-1.05-.969-.5m125.533 2.207c-.542 1.425-.428 1.54.56.56.684-.679.991-1.486.683-1.793-.308-.308-.867.247-1.243 1.233m12.662-.133c.95.994 2.001 1.533 2.336 1.197.335-.335-.442-1.148-1.726-1.807-2.233-1.145-2.26-1.118-.61.61M195 92.727c0 2.285.45 4.433 1 4.773.55.34 1.007 1.604 1.015 2.809.009 1.205.486 2.866 1.062 3.691.759 1.09.947-.35.686-5.262-.248-4.662-.888-7.292-2.061-8.465-1.603-1.602-1.702-1.459-1.702 2.454m-133.902.422c-1.371 3.933-1.424 9.532-.098 10.351.58.358 1-.615 1-2.319 0-1.615.598-3.433 1.33-4.04C64.713 95.993 64.423 90 62.984 90c-.433 0-1.282 1.417-1.886 3.149m130.563-1.399c-1.15 1.887-1.083 8.588.089 8.989.892.305 1.25-1.028 1.25-4.656 0-4.863-.342-5.969-1.339-4.333M54.902 96.167c-.415 5.68.024 8.058 1.718 9.297 1.032.755 1.918 1.297 1.968 1.204.627-1.15-1.414-11.117-2.338-11.422-.687-.227-1.294.187-1.348.921m147.319.094c-1.13 1.391-2.088 10.739-1.101 10.739 1.57 0 3.307-3.534 3.49-7.099.214-4.174-.756-5.652-2.389-3.64M45.68 97.393c-1.204 3.137-.818 11.81.49 11.002.794-.491.958-.171.511.993-.367.957-.248 1.463.269 1.143.51-.315 1.32.13 1.801.989.533.951 1.533 1.308 2.561.914 1.864-.716 2.253-2.967.681-3.938-.554-.343-1.738-2.057-2.631-3.809-1.374-2.699-.975-2.457 2.61 1.582 4.136 4.661 8.034 7.585 8.022 6.016-.004-.432-1.349-1.549-2.989-2.482-2.581-1.469-4.663-4.163-9.575-12.388-1.022-1.71-1.102-1.711-1.75-.022m165.265 1.251c-.553 1.454-1.286 3.099-1.63 3.655-.355.574-.126.702.53.296 1.89-1.167 1.326.55-1.533 4.676-2.235 3.225-2.446 4.032-1.25 4.789 2.113 1.337 2.749 1.162 3.953-1.088.597-1.115 1.484-1.782 1.971-1.481 1.392.861 2.277-7.686 1.112-10.741-1.307-3.429-1.882-3.448-3.153-.106M216 98c0 .55.477 1 1.059 1s.781-.45.441-1-.816-1-1.059-1-.441.45-.441 1m-179.8 5.2c-1.738 1.738-1.475 2.8.693 2.8 1.899 0 3.491-2.283 2.371-3.402-.894-.895-1.732-.73-3.064.602m183.8.8c0 1.367.667 2 2.107 2 1.51 0 1.935-.448 1.5-1.582-.334-.87-.607-1.77-.607-2 0-.23-.675-.418-1.5-.418-.833 0-1.5.889-1.5 2m-14.955 3.454c-4.446 4.587-8.793 5.576-11.237 2.557-1.168-1.442-1.808-1.733-1.808-.822 0 3.896 5.643 5.023 10.177 2.033 2.389-1.576 7.543-7.222 6.592-7.222-.207 0-1.883 1.554-3.724 3.454M97 107.071c0 1.353 8.023 10.929 9.157 10.929 1.904 0 .619-3.387-2.869-7.56-3.528-4.22-6.288-5.699-6.288-3.369m16.494-.062c-.342.555-.279 2.017.142 3.25.421 1.233.788 2.541.815 2.908.027.366.387 1.004.799 1.416.412.413.75 1.575.75 2.584 0 1.186.729 1.833 2.067 1.833 2.299 0 2.176-.922-1.176-8.75-1.907-4.454-2.373-4.898-3.397-3.241m9.583 4.714c1.083 3.147 2.364 6.118 2.846 6.6 1.653 1.653 2.126-2.999.602-5.921-.832-1.596-1.515-3.689-1.519-4.652-.004-1.065-.768-1.75-1.952-1.75-1.926 0-1.925.061.023 5.723m5.437-3.473c2 6.939 3.862 10.774 4.785 9.851.655-.655.527-2.62-.378-5.796-.754-2.643-1.269-5.143-1.146-5.555.124-.412-.705-.75-1.842-.75-1.67 0-1.943.433-1.419 2.25m7.486-1.191c0 .582.45.781 1 .441s1-.816 1-1.059-.45-.441-1-.441-1 .477-1 1.059m6.738.191c-.235.688.404 3.203 1.42 5.59 1.017 2.388 1.595 4.75 1.286 5.25-.309.501.549.91 1.908.91h2.47l-2.579-6.5c-2.541-6.403-3.662-7.71-4.505-5.25m9.097 5.252c-.306 5.947-.164 6.502 1.665 6.502s1.971-.555 1.665-6.502c-.236-4.574-.73-6.502-1.665-6.502s-1.429 1.928-1.665 6.502m6.803-5.002c.317.825.753 1.5.969 1.5.216 0 .393-.675.393-1.5s-.436-1.5-.969-1.5c-.532 0-.709.675-.393 1.5m-126.376 3.19c.93.93 1.971 1.41 2.314 1.067.985-.984-.526-2.757-2.349-2.757-1.527 0-1.524.132.035 1.69m192.348-.117c-.42 1.096-.099 1.475 1.061 1.25.915-.178 1.851-.885 2.079-1.573.613-1.839-2.43-1.526-3.14.323m-67.959.895c-.31.807-.133 1.734.393 2.059.526.325.956-.336.956-1.468 0-2.415-.556-2.658-1.349-.591m-123.365 4.138c-2.481 2.682-.55 3.515 2.071.894.825-.825 1.956-1.5 2.513-1.5.556 0 1.29-.45 1.63-1 1.285-2.08-4.091-.691-6.214 1.606m21.061-1.056c-1.606 1.228-1.651 1.543-.347 2.416 2.058 1.377 2.347 1.309 3.712-.877 1.572-2.517-.716-3.564-3.365-1.539m147.326-.89c-.363.363.266 1.309 1.398 2.102 2.459 1.722 3.734.912 1.949-1.238-1.371-1.652-2.315-1.896-3.347-.864m6.764 2.59l-2.937 3.25 3.25-2.937c3.029-2.738 3.71-3.563 2.937-3.563-.172 0-1.635 1.463-3.25 3.25m14.063-.781c3.998 3.277 6.451 3.313 3.355.048-1.295-1.365-3.255-2.488-4.355-2.495-1.725-.01-1.588.326 1 2.447m-172.496.873c1.373 1.563 3.396 3.305 4.496 3.872 2.105 1.085 2.044 1.02-3.496-3.722l-3.497-2.992 2.497 2.842m88.579.524c-.431.697-.513 1.537-.183 1.867.895.895 1.871-.421 1.387-1.871-.338-1.016-.574-1.016-1.204.004m-101.076 1.123c-.35.566.051.734.941.393 1.732-.665 2.049-1.382.611-1.382-.518 0-1.216.445-1.552.989M97 118c0 .55.477 1 1.059 1s.781-.45.441-1-.816-1-1.059-1-.441.45-.441 1m12 0c0 .55.477 1 1.059 1s.781-.45.441-1-.816-1-1.059-1-.441.45-.441 1m-75 2.417c0 .779-.476 1.575-1.057 1.769-.582.194-.778 1.081-.436 1.973.725 1.888 4.076 1.37 4.892-.758.296-.77 1.404-1.401 2.463-1.401 1.058 0 2.183-.675 2.5-1.5.741-1.932-.687-1.901-4.557.101-2.839 1.468-3.046 1.468-2.482 0 .338-.881.178-1.601-.354-1.601-.533 0-.969.638-.969 1.417M33.5 123c-.34.55-.141 1 .441 1S35 123.55 35 123s-.198-1-.441-1-.719.45-1.059 1m-.5 13.5c0 5.111.321 6.5 1.5 6.5s1.5-1.389 1.5-6.5-.321-6.5-1.5-6.5-1.5 1.389-1.5 6.5m6.638-5c.317.825.753 1.5.969 1.5.216 0 .393-.675.393-1.5s-.436-1.5-.969-1.5c-.532 0-.709.675-.393 1.5m3.939.75c1.651 5.214 4.425 10.75 5.387 10.75 1.405 0 1.346-.613-.696-7.241-1.301-4.226-2.248-5.744-3.585-5.75-1.43-.007-1.666.47-1.106 2.241M52 131c0 .55.45 1 1 1s1-.45 1-1-.45-1-1-1-1 .45-1 1m4.5 5.497c0 5.109.321 6.498 1.5 6.498 1.179.001 1.501-1.389 1.503-6.497.002-5.116-.317-6.498-1.5-6.499-1.183 0-1.503 1.383-1.503 6.498m6.515-5.806c.009.445.452 1.484.985 2.309.835 1.293.971 1.266.985-.191.008-.93-.435-1.969-.985-2.309-.55-.34-.993-.254-.985.191m5.006 1.059c.011.963 2.019 4 4.461 6.75 4.315 4.858 4.442 4.922 4.48 2.25.021-1.512-.3-2.761-.712-2.774-.412-.013-2.074-1.813-3.692-4-3.182-4.3-4.57-4.981-4.537-2.226M76 131c0 .55.45 1 1 1s1-.45 1-1-.45-1-1-1-1 .45-1 1m3.345.543c-.93 2.424.368 2.862 1.609.543.774-1.447.789-2.086.05-2.086-.587 0-1.333.694-1.659 1.543m4.493 4.905c-.274 5.312-.053 6.556 1.162 6.555 1.188-.001 1.47-1.296 1.358-6.216-.193-8.42-2.091-8.675-2.52-.339m4.768-5.032c.335.871 1.047 1.584 1.584 1.584 1.315 0 .492-2.273-1.003-2.771-.731-.244-.954.214-.581 1.187m8.407-.666c.007.412 1.298 3.43 2.868 6.705 2.37 4.945 2.965 5.604 3.51 3.888.862-2.715-2.831-11.343-4.855-11.343-.845 0-1.53.338-1.523.75m10.654-.083c-.367.366-.667 3.291-.667 6.5 0 4.518.338 5.833 1.5 5.833 1.179 0 1.5-1.389 1.5-6.5 0-5.995-.621-7.546-2.333-5.833m18.354 1.083c.011.963 2.019 4 4.461 6.75 4.315 4.858 4.442 4.922 4.48 2.25.021-1.512-.3-2.761-.712-2.774-.412-.013-2.074-1.813-3.692-4-3.182-4.3-4.57-4.981-4.537-2.226M134 131c0 .55.45 1 1 1s1-.45 1-1-.45-1-1-1-1 .45-1 1m8.199.61c-.542.968-.621 2.464-.176 3.325.446.861 1.352 3.028 2.015 4.815.75 2.025 1.887 3.25 3.013 3.25 1.668 0 1.612-.486-.721-6.25-3.036-7.5-2.903-7.335-4.131-5.14M152 132c-3.192 3.192-2.078 11 1.57 11 1.173 0 1.275-.422.465-1.934-1.484-2.773-1.277-6.275.522-8.843 1.943-2.775.151-2.931-2.557-.223m12 4.5c0 5.111.321 6.5 1.5 6.5 1.011 0 1.5-1.012 1.5-3.107 0-2.351.365-2.967 1.5-2.531.905.347 1.5.005 1.5-.862s-.595-1.209-1.5-.862c-1.135.436-1.5-.18-1.5-2.531 0-2.095-.489-3.107-1.5-3.107-1.179 0-1.5 1.389-1.5 6.5m7.02-4.976c.696.838 1.471 1.318 1.723 1.067.693-.694-.716-2.591-1.924-2.591-.664 0-.588.574.201 1.524m5.997 2.51c1.132 2.219 2.523 5.256 3.091 6.75.928 2.441 1.134 2.536 2.03.935 1.409-2.518-2.781-11.719-5.337-11.719-1.753 0-1.743.193.216 4.034m8.86-3.284c-.067.412-.18 3.336-.25 6.497-.107 4.854.145 5.748 1.623 5.75 1.487.003 1.75-.972 1.75-6.497 0-5.111-.321-6.5-1.5-6.5-.825 0-1.555.338-1.623.75m6.623 5.722c0 5.13.32 6.523 1.5 6.526 2.094.004 2-12.361-.098-12.774-1.088-.214-1.402 1.187-1.402 6.248m6.515-5.781c.009.445.452 1.484.985 2.309.835 1.293.971 1.266.985-.191.008-.93-.435-1.969-.985-2.309-.55-.34-.993-.254-.985.191m4.985.86c0 1.609 7.017 11.298 8.25 11.392 1.861.141.469-4.352-2.245-7.247-1.648-1.758-2.998-3.485-3-3.839-.003-.354-.68-.902-1.505-1.219-.919-.352-1.5.001-1.5.913m8-.492c0 .582.45.781 1 .441s1-.816 1-1.059-.45-.441-1-.441-1 .477-1 1.059m4 .5c0 .857.45 1.281 1 .941.55-.34 1-1.041 1-1.559s-.45-.941-1-.941-1 .702-1 1.559m3.838 4.889c-.297 5.769-.122 6.556 1.46 6.554 1.568-.002 1.759-.79 1.5-6.173-.416-8.618-2.522-8.89-2.96-.381m5.208-4.362c.614 1.147 1.36 1.841 1.659 1.543.824-.824-.496-3.629-1.709-3.629-.739 0-.724.639.05 2.086m-108.304.164c-.234.688-.084 1.925.333 2.75.417.825 1.3 2.963 1.963 4.75.749 2.02 1.887 3.25 3.008 3.25 1.652 0 1.585-.508-.785-6-2.57-5.958-3.704-7.149-4.519-4.75m42.896.25c.317.825.753 1.5.969 1.5.216 0 .393-.675.393-1.5s-.436-1.5-.969-1.5c-.532 0-.709.675-.393 1.5m-122.013 3.298c-.271.439-.08 1.451.426 2.25.717 1.134.922.959.934-.798.015-2.313-.493-2.856-1.36-1.452m23.821.289c-.369.598-.171 1.588.441 2.2.817.817 1.113.528 1.113-1.087 0-2.415-.519-2.787-1.554-1.113M197 136.5c0 .825.177 1.5.393 1.5.216 0 .652-.675.969-1.5.316-.825.139-1.5-.393-1.5-.533 0-.969.675-.969 1.5m-39 4c0 1.556.567 2.5 1.5 2.5s1.5-.944 1.5-2.5-.567-2.5-1.5-2.5-1.5.944-1.5 2.5m-94.362 1c-.316.825-.139 1.5.393 1.5.533 0 .969-.675.969-1.5s-.177-1.5-.393-1.5c-.216 0-.652.675-.969 1.5m108 0c-.316.825-.139 1.5.393 1.5.533 0 .969-.675.969-1.5s-.177-1.5-.393-1.5c-.216 0-.652.675-.969 1.5m28 0c-.316.825-.139 1.5.393 1.5.533 0 .969-.675.969-1.5s-.177-1.5-.393-1.5c-.216 0-.652.675-.969 1.5M39.5 142c-.34.55.084 1 .941 1S42 142.55 42 142s-.423-1-.941-1-1.219.45-1.559 1m73 0c-.34.55-.141 1 .441 1s1.059-.45 1.059-1-.198-1-.441-1-.719.45-1.059 1m25 0c-.34.55-.141 1 .441 1s1.059-.45 1.059-1-.198-1-.441-1-.719.45-1.059 1m-64 10.973c-14.553.479-12.812.606 19.25 1.397 19.982.493 50.518.493 70.5 0 32.456-.801 33.982-.914 19.25-1.423-20.026-.692-87.678-.675-109 .026m151.031 2.977c-.368.595-1.088.824-1.6.507-1.378-.852-1.071.774.551 2.916 1.35 1.783 1.45 1.744 2.088-.797.712-2.836.079-4.435-1.039-2.626m-190.033 1.054c-.614.992.445 3.996 1.409 3.996.893 0 3.093-2.193 3.093-3.083 0-1.044-3.929-1.841-4.502-.913m187.565 4.163c-.034.916-.401 1.855-.813 2.086-.412.23-.3.328.25.217.55-.111 2.264 1.58 3.808 3.759 2.82 3.977 2.076 4.167-1.994.508-2.181-1.961-2.185-1.96-1.634.149.304 1.162 1.176 2.114 1.937 2.114.76 0 1.383.45 1.383 1s1.18 1 2.622 1c2.544 0 2.573-.067.963-2.25-.912-1.238-1.92-3.037-2.238-4-.319-.963-.992-1.75-1.496-1.75-.503 0-1.322-1.012-1.82-2.25-.639-1.59-.923-1.761-.968-.583M37.484 163.5c.801 1.835.913 3.364.662 9-.049 1.1.067 3.463.258 5.25.19 1.787.402 4.67.471 6.405.125 3.144.132 3.149 2.24 1.25 2.927-2.637 4.222-6.101 4.31-11.525.054-3.33-.277-4.485-1.188-4.138-1.599.61-4.237-1.529-4.237-3.436 0-.797-.762-2.204-1.694-3.127-1.588-1.574-1.639-1.553-.822.321m-3.284.7c-.66.66-1.2 1.785-1.2 2.5 0 .715-.45 1.3-1 1.3s-.986.563-.968 1.25c.035 1.418 4.968-3.849 4.968-5.306 0-1.241-.353-1.191-1.8.256m38.815-.572c-.008.62.607 1.644 1.368 2.275 1.071.889 1.523.785 2-.459.922-2.402.717-3.143-.398-1.444-.876 1.333-1.094 1.333-1.97 0-.541-.825-.991-.993-1-.372M85 165.441c0 1.343.369 2.669.819 2.947.451.279.624-.82.387-2.441-.525-3.574-1.206-3.86-1.206-.506m20.195.559c-.02 1.925.196 2.919.481 2.208.354-.882.899-.976 1.717-.297.875.727 1.186.356 1.153-1.375-.025-1.304-.407-2.731-.849-3.173-.441-.441-.506-.028-.143.917.363.946.195 1.72-.374 1.72-.568 0-1.239-.787-1.491-1.75-.251-.963-.474-.175-.494 1.75m8.305-2c.34.55.816 1 1.059 1s.441-.45.441-1-.477-1-1.059-1-.781.45-.441 1m9.616 1.789l-.116 3.289 2.108-1.964c1.16-1.081 1.87-2.561 1.579-3.289-.352-.881-.556-.739-.608.425-.043.963-.496 1.75-1.006 1.75-.509 0-1.132-.787-1.384-1.75-.251-.963-.509-.27-.573 1.539M130.5 164c.34.55.816 1 1.059 1s.441-.45.441-1-.477-1-1.059-1-.781.45-.441 1m4.5 0c0 .55.477 1 1.059 1s.781-.45.441-1-.816-1-1.059-1-.441.45-.441 1m12.5 0c.34.55.816 1 1.059 1s.441-.45.441-1-.477-1-1.059-1-.781.45-.441 1m3.5 1.441c0 1.343.369 2.669.819 2.947.451.279.624-.82.387-2.441-.525-3.574-1.206-3.86-1.206-.506m6.886-2.191c-.063.137-.269 1.596-.459 3.242-.253 2.199-.09 2.597.614 1.5.85-1.322 1.071-1.321 1.944.008.843 1.284.987 1.248 1-.25.008-.963-.708-1.75-1.592-1.75-1.018 0-1.396-.55-1.031-1.5.449-1.17.011-2.319-.476-1.25m13.346 2.75c0 1.925.206 2.713.457 1.75.252-.963.252-2.537 0-3.5-.251-.963-.457-.175-.457 1.75M182 164c0 .55.477 1 1.059 1s.781-.45.441-1-.816-1-1.059-1-.441.45-.441 1m33 0c0 .55.45 1 1 1s1-.45 1-1-.45-1-1-1-1 .45-1 1m-172.5 1c-.34.55.11 1 1 1s1.34-.45 1-1c-.34-.55-.79-1-1-1-.21 0-.66.45-1 1m167.09 1.145c.488.791-.115.988-1.95.637-2.159-.413-2.445-.252-1.526.855.863 1.04.799 1.363-.269 1.363-1.848 0-4.368 3.015-4.607 5.511a484.774 484.774 0 01-.674 6.24c-1.013 8.927-1.031 12.248-.064 12.217 1.461-.046 4.5-2.527 4.5-3.673 0-.542.9-1.8 2-2.795 1.1-.995 2-2.879 2-4.186s.649-2.626 1.443-2.93c1.039-.399 1.207-1.174.6-2.772-.486-1.278-.439-2.939.111-3.923.525-.937.678-2.151.341-2.697-1.305-2.112-2.24-.796-2.801 3.946-.631 5.322-4.108 14.331-6.203 16.07-.71.588-.206-1.613 1.118-4.892 1.324-3.279 2.704-8.134 3.065-10.789.793-5.831 2.957-7.958 5.639-5.539 1.263 1.139 1.753 2.859 1.618 5.674-.231 4.783 1.05 8.327 3.954 10.943 2.339 2.106 2.094 2.67 2.568-5.905.061-1.1.426-2.9.813-4 .386-1.1.341-3.346-.101-4.99-.722-2.687-1.16-2.96-4.311-2.689-2.26.195-3.967-.253-4.803-1.259-1.488-1.794-3.525-2.139-2.461-.417m-174.912 2.443c-1.553 1.342-3.209 2.202-3.681 1.91-.472-.292-1.141-.073-1.487.486-.357.578.367 1.006 1.681.994 2.735-.027 7.236-3.227 6.691-4.758-.215-.604-1.614-.007-3.204 1.368m57.894-1.838c.497.412 1.241 1.2 1.651 1.75.426.571.753.249.762-.75.008-.973-.725-1.75-1.652-1.75-.916 0-1.259.338-.761.75m39.507.833c.048 1.165.285 1.402.604.605.289-.722.253-1.585-.079-1.917-.332-.332-.568.258-.525 1.312m46.485-.29c.376.986.935 1.541 1.243 1.233.308-.307.001-1.114-.683-1.793-.988-.98-1.102-.865-.56.56m5.936.707c.34.55.816 1 1.059 1s.441-.45.441-1-.477-1-1.059-1-.781.45-.441 1m12.658 2.065c-1.289.517-2.7.718-3.137.448-.437-.27-1.299.117-1.917.861-.916 1.105-.434 1.277 2.637.943 2.068-.225 4.418-1.063 5.223-1.863 1.651-1.639.657-1.776-2.806-.389m7.498.685c-.254.412-.754 3-1.113 5.75-.799 6.135 1.027 4.043 2.048-2.346.61-3.812.211-5.265-.935-3.404m11.421 1.5c.042 1.238.709 4.05 1.482 6.25 1.358 3.866 1.389 3.887.923.625-.265-1.856-.482-4.669-.482-6.25 0-1.581-.45-2.875-1-2.875s-.965 1.012-.923 2.25m-174.474.882c-.991 4.746-1.223 8.751-.48 8.292.97-.6 2.308-9.327 1.546-10.088-.314-.315-.794.494-1.066 1.796m6.89 4.572c.148 1.538.615 3.696 1.038 4.796.864 2.242 5.564 6.945 8.525 8.53 1.694.906 1.944.706 1.944-1.561 0-1.43-.451-3.444-1.003-4.474-.59-1.103-.629-2.104-.094-2.435.983-.607-.907-5.539-2.128-5.552-.399-.004-.441 1.412-.094 3.147.85 4.25-1.171 2.968-2.183-1.384-.546-2.352-.888-2.757-1.217-1.442-.252 1.005.651 4.069 2.006 6.807l2.464 4.979-2.404-2.259c-1.322-1.242-2.994-4.281-3.714-6.753-1.487-5.099-3.55-6.675-3.14-2.399M60 176.842c0 .453.563.873 1.25.933 2.21.191 4.218.761 5.5 1.562.688.43 1.25.331 1.25-.219s-.542-1.335-1.205-1.745c-1.774-1.096-6.795-1.489-6.795-.531m150.12 9.296c-1.86 2.221-4.4 6.052-5.647 8.514-1.246 2.462-3.1 5.108-4.119 5.88-1.02.773-1.338 1.419-.708 1.436 1.607.045 6.941-6.238 9.418-11.093 2.833-5.553 3.584-4.232.873 1.535-1.197 2.547-4.211 6.422-6.697 8.61-3.233 2.846-4.005 3.98-2.71 3.98.997 0 2.523-.634 3.391-1.41.869-.775 2.479-1.563 3.579-1.75 1.1-.187 2.552-1.076 3.227-1.976.674-.899 2.249-1.893 3.5-2.208 1.513-.382 2.649-1.782 3.397-4.188.997-3.207.873-3.916-1.101-6.291-1.224-1.472-2.405-3.217-2.624-3.877-.222-.667-1.903.596-3.779 2.838m-166.964.318c-2.093 3.074-2.219 3.823-1.173 6.993.645 1.953 1.608 3.551 2.14 3.551s1.998 1.012 3.257 2.25c1.258 1.238 3.15 2.398 4.204 2.579 1.054.181 2.913.968 4.131 1.75 4.353 2.793 5.648 1.467 1.502-1.537-2.246-1.627-5.238-4.929-6.65-7.338-4.146-7.073-2.942-7.494 1.672-.584 3.042 4.555 4.338 5.838 4.588 4.54.192-.995-.366-2.598-1.239-3.563-.874-.965-1.588-2.123-1.588-2.573 0-1.079-6.937-9.526-7.817-9.517-.376.004-1.738 1.556-3.027 3.449M114 187.941c0 .518.445 1.216.989 1.552.566.35.734-.051.393-.941-.665-1.732-1.382-2.049-1.382-.611m26.862.296c.749.956 1.092 2.442.761 3.302-.345.9-.18 1.305.388.954 1.528-.944 1.173-3.104-.761-4.621-1.583-1.241-1.62-1.206-.388.365m5.567.763c0 1.295.338 1.633.985.986.648-.648.648-1.324 0-1.972-.647-.647-.985-.309-.985.986m-35.234 1.5c.02 1.65.244 2.204.498 1.231.254-.973.237-2.323-.037-3-.274-.677-.481.119-.461 1.769m42 0c.02 1.65.244 2.204.498 1.231.254-.973.237-2.323-.037-3-.274-.677-.481.119-.461 1.769m-46.462-.376c.679.684 1.486.991 1.793.683.308-.308-.247-.867-1.233-1.243-1.425-.542-1.54-.428-.56.56m13.267.317c0 .793.408 1.693.907 2.001.498.309.671-.34.383-1.441-.611-2.335-1.29-2.63-1.29-.56m18 0c0 .793.408 1.693.907 2.001.498.309.671-.34.383-1.441-.611-2.335-1.29-2.63-1.29-.56m-75.443 1.782c-2.312 3.3-1.886 4.465.516 1.412 2.347-2.984 5.045-3.374 7.356-1.064 1.968 1.969 2.051 5.429.13 5.429-.793 0-1.749.498-2.125 1.107-.461.745.011.887 1.441.433 3.207-1.018 2.558.873-1.534 4.465-3.402 2.988-4.067 3.183-9.502 2.79-4.022-.291-6.806-1.134-8.927-2.702-2.715-2.007-2.959-2.05-2.057-.363 1.396 2.608 7.727 6.865 12.94 8.701 12.101 4.261 21.252 2.317 25.162-5.347 1.146-2.246 1.679-4.084 1.185-4.084-.495 0-1.463 1.362-2.153 3.026-1.469 3.548-5.41 6.607-9.55 7.413l-2.939.573 2.75-1.089c3.072-1.217 3.609-3.965 1.17-5.99-1.292-1.072-2.158-1.077-4.75-.03-6.624 2.675-10.47 3.332-13.355 2.281-2.627-.958-2.494-1.031 1.985-1.105 8.475-.139 13.7-4.391 13.7-11.147 0-4.412-2.462-6.932-6.772-6.932-2.085 0-3.629.735-4.671 2.223M134 191.5c-.718.865-.815 1.5-.229 1.5.558 0 1.274-.675 1.591-1.5.316-.825.419-1.5.229-1.5-.19 0-.906.675-1.591 1.5m52.655.329c-3.419 3.778-1.032 11.89 4.312 14.654 1.614.834 5.319 1.556 8.233 1.603 4.819.078 5.028.171 2.3 1.023-3.484 1.088-8.687.363-12.854-1.792-2.237-1.157-3.477-1.259-5.285-.436-3.202 1.459-3.004 4.463.389 5.888 2.511 1.055 2.533 1.106.25.589-3.951-.895-6.983-3.215-9.273-7.095-1.189-2.017-2.303-3.035-2.54-2.323-1.106 3.318 6.66 9.962 12.571 10.754 7.874 1.057 25.338-6.414 27.037-11.565.263-.797-.892-.378-2.755 1-2.581 1.908-4.445 2.371-9.543 2.371-5.329 0-6.746-.385-8.916-2.424-3.689-3.466-3.286-7.131.421-3.826 1.192 1.063 1.204.989.077-.5-.728-.963-1.944-1.75-2.701-1.75-1.983 0-1.696-3.402.451-5.345 2.43-2.199 4.738-2.088 7.171.345 1.1 1.1 2 1.62 2 1.155 0-1.793-3.795-4.155-6.674-4.155-1.659 0-3.761.823-4.671 1.829M179 199.654c-3.979 2.823-4.481 4.706-1.375 5.149 2.727.389 5.375-2.259 5.375-5.374 0-1.336-.113-2.39-.25-2.343-.137.047-1.825 1.203-3.75 2.568M76.5 199c-1.166 1.886 2.329 6 5.096 6 3.455 0 2.834-2.507-1.26-5.091-2.126-1.342-3.384-1.64-3.836-.909m11.921 10.128c-.296.479.275.908 1.27.951 1.049.046 1.284.291.559.583-2.318.935-1.273 2.416 1.5 2.126 2.395-.251 5.122-2.239 5.218-3.805.056-.902-7.984-.766-8.547.145m73.993.012c-.553.894 6.602 4.177 7.388 3.391.352-.352-.022-1.058-.831-1.57-1.206-.763-1.125-.933.446-.946 1.054-.008 1.585-.347 1.179-.752-.906-.906-7.636-1.007-8.182-.123m-77.855 6.392c-1.068.807-2.98 1.468-4.25 1.468-2.669 0-2.691.067-1.148 3.453.638 1.401 1.777 2.547 2.531 2.547.754 0 1.63.675 1.946 1.5.317.825 1.342 1.5 2.278 1.5.936 0 2.575.661 3.643 1.468 2.458 1.859 3.527 1.919 2.852.16-.395-1.028.179-1.245 2.281-.866 1.544.278 3.281.877 3.86 1.33.579.454 1.96.587 3.07.297 1.172-.307 2.568.135 3.331 1.054 1.015 1.224 1.628 1.319 2.709.422 1.05-.871 2.018-.876 3.895-.021 1.593.726 3.123.805 4.221.22.947-.505 2.592-1.193 3.655-1.53 1.876-.594 1.869-.676-.222-2.767-1.185-1.186-2.492-1.819-2.904-1.407-.412.412-.087 1.185.722 1.718 1.504.991-4.976.487-13.798-1.072-2.347-.415-4.511-.361-4.809.12-.746 1.207-5.163 1.101-5.932-.142-.346-.559-.976-.802-1.401-.539-.424.262-2.282-1.08-4.127-2.984-3.378-3.485-3.008-4.72.597-1.993 2.477 1.874 3.094 1.879 3.803.032.842-2.196-.307-4.458-1.945-3.83-.779.299-1.417.046-1.417-.563 0-1.484-1.097-1.348-3.441.425m84.441.591c-1.925.98-2.937 1.803-2.25 1.829.688.026 1.25.723 1.25 1.548 0 1.976.62 1.898 4.632-.582 3.893-2.406 3.959-2.556 1.618-3.711-1.161-.574-2.927-.265-5.25.916m-10.921 1.46c.048 1.165.285 1.402.604.605.289-.722.253-1.585-.079-1.917-.332-.332-.568.258-.525 1.312m14.314 3.667c-2.112 2.338-4.077 4.182-4.366 4.099-.29-.084-1.252.236-2.139.711-1.014.542-2.265.385-3.371-.424-1.447-1.058-2.76-1.007-7.388.289-6.062 1.696-8.129 2.718-8.129 4.017 0 1.285 4.352 2.106 5.433 1.025.532-.532 2.172-.967 3.645-.967 1.472 0 3.263-.706 3.98-1.57.716-.863 2.057-1.372 2.98-1.13.923.241 2.529-.032 3.57-.608 1.687-.933 1.744-.865.52.631-1.174 1.434-1.156 1.677.127 1.677.825 0 2.06-.675 2.745-1.5s1.884-1.5 2.665-1.5c.781 0 1.963-.465 2.627-1.034a61.258 61.258 0 012.857-2.25c.907-.669 1.95-2.228 2.317-3.466.566-1.903.291-2.25-1.782-2.25-1.615 0-3.762 1.45-6.291 4.25M68 219.526C68 221.291 75.007 231 76.281 231c.47 0 .561-.922.204-2.048-.358-1.126-.135-2.669.495-3.428.873-1.052.767-2.112-.443-4.452-2.138-4.135-2.823-3.866-2.366.928.21 2.2.051 4-.354 4-.405 0-1.276-1.8-1.935-4-1.157-3.86-3.882-5.597-3.882-2.474m68.75.046c-1.512.821-2.75 1.928-2.75 2.46 0 1.828 5.503.956 9.5-1.506l4-2.464-4 .009c-2.2.005-5.238.68-6.75 1.501m46.034 1.726c-1.031 2.179-1.33 3.865-.75 4.223.531.328.974 2.033.983 3.788l.017 3.191 2.081-3.25c1.145-1.787 2.487-3.25 2.983-3.25s.902-.653.902-1.45c0-.798.563-1.81 1.25-2.25 1.744-1.116 1.828-4.3.114-4.3-.777 0-1.866 1.238-2.418 2.75-2.055 5.622-2.328 5.748-2.887 1.336l-.559-4.414-1.716 3.626m-35.935-1.273c-.909.53-3.097 3.554-4.863 6.72-1.767 3.165-4.174 6.829-5.349 8.141l-2.137 2.385 2.281-1.187c2.556-1.331 7.802-8.146 8.802-11.435.36-1.182 1.345-2.936 2.19-3.899 1.723-1.962 1.497-2.139-.924-.725m-43.743 1.347c-.913 1.1-.517 1.496 2.003 2 4.604.921 8.094.766 7.418-.328-.325-.526-1.18-.731-1.899-.455-.719.276-1.885-.193-2.59-1.043-1.587-1.912-3.435-1.977-4.932-.174m47.329 1.01c-1.359 1.926-1.327 2.145.351 2.413 2.481.398 7.472-1.569 6.789-2.674-.3-.485-1.693-1.102-3.096-1.37-1.827-.349-2.974.114-4.044 1.631M94 222c0 .55.45 1 1 1s1-.45 1-1-.45-1-1-1-1 .45-1 1m36.225-.329c-.701.282-3.139 3.284-5.417 6.671-4.75 7.064-1.644 4.953 3.74-2.542 1.897-2.64 3.337-4.764 3.2-4.721-.136.043-.822.31-1.523.592m1.737 6.149c-.804.254-3.511 2.311-6.016 4.571s-5.43 4.645-6.5 5.3c-1.649 1.009-1.042 1.2 3.975 1.25 5.745.057 6.051-.076 10.25-4.459 2.381-2.484 4.329-4.907 4.329-5.383 0-1.059-4.03-1.913-6.038-1.279" fill="#1976D2" fill-rule="evenodd"/><path fill-opacity=".968" d="M0 128.004v128.004l128.25-.254 128.25-.254.254-127.75L257.008 0H0v128.004m.485.496c0 70.4.119 99.053.265 63.672.146-35.38.146-92.98 0-128C.604 29.153.485 58.1.485 128.5m125.783-98.536c.434 3.229.197 4.071-1.276 4.538-.994.316-2.057 1.226-2.363 2.022-.42 1.095-1.625 1.301-4.941.847-3.487-.478-4.513-.27-5.005 1.014-.625 1.627-3.683 2.304-3.683.815 0-1.934 2.739-3.201 6.95-3.215 3.306-.011 4.14-.281 3.05-.985-2.947-1.904-8.942-1.149-11.545 1.455-2.73 2.729-3.033 4.617-1.263 7.861.656 1.201 1.237 3.759 1.291 5.684.084 2.974-.508 3.956-3.942 6.534-5.456 4.097-5.909 8.278-1.547 14.298 5.512 7.61 17.476 13.642 22.509 11.349 1.373-.626 2.497-1.602 2.497-2.168 0-.663-.655-.621-1.841.12-4.367 2.727-15.71-2.77-21.118-10.235-4.43-6.115-3.835-11.113 1.291-10.835.642.035.155.471-1.082.968-2.594 1.043-2.832 2.949-.845 6.769 3.316 6.373 10.818 9.476 12.422 5.138.812-2.194.829-2.191 3.051.634 1.483 1.885 2.041 3.613 1.659 5.135-.448 1.787-.157 2.293 1.322 2.293 2.749 0 4.471-2.547 3.727-5.512-1.358-5.413-11.947-14.331-17.296-14.567-1.084-.048-1.288-.281-.519-.59.699-.282 2.724-.027 4.5.565 3.019 1.007 3.099.976 1.229-.472-1.1-.851-3.274-1.809-4.831-2.127-2.028-.415-2.453-.818-1.5-1.423 3.57-2.262 12.208.198 17.081 4.866 2.495 2.39 2.756 2.455 2.813.697.057-1.726.161-1.695.958.285.56 1.393.483 3.401-.206 5.378-.871 2.5-.75 4.265.584 8.498 2.099 6.657 3.805 8.402 8.212 8.402C146.11 84 161 71.107 161 62.882c0-3.471-7.127-9.882-10.986-9.882-1.444 0-4.175-1.175-6.07-2.612-5.698-4.322-11.611-6.637-13.866-5.43-1.071.573-3.292 1.042-4.936 1.042-1.876 0-4.696 1.303-7.574 3.5-2.522 1.925-5.226 3.5-6.009 3.5-1.864 0-3.022-3.737-1.665-5.372.751-.905.717-1.617-.118-2.452-.901-.901-.462-1.176 1.884-1.176 1.684 0 4.699-1.111 6.7-2.47 3.782-2.566 3.98-2.501 3.679 1.22-.218 2.695.771 2.892 2.518.503.889-1.216.964-2.125.248-2.987-2.1-2.531-.065-4.399 4.436-4.074 3.687.267 4.248.61 4.18 2.558-.09 2.547.575 2.811 2.526 1 1.077-1 1.205-1 .641 0-.486.86.104 1.25 1.893 1.25C141.366 41 149 44.555 149 45.898c0 .472-1.012 1.564-2.25 2.428-1.939 1.352-2.002 1.576-.455 1.622 2.82.082 6.705-4.455 6.705-7.83 0-5.646-9.066-9.294-15.089-6.07-1.487.795-2.331.675-3.506-.5-.851-.851-2.641-1.548-3.976-1.548-2.032 0-2.429-.49-2.429-3 0-3.573 2.653-4.184 3.257-.75.395 2.241.4 2.24 1.444-.25 1.241-2.963.219-3.962-4.083-3.985-2.782-.014-2.863.122-2.35 3.949M139 38.014c-1.073.704-.602.811 1.658.378 2.549-.489 3.375-.199 4.285 1.501 1.303 2.436 4.057 2.83 4.057.582 0-2.712-6.992-4.433-10-2.461M131 49.7c0 2.155.594 4.729 1.319 5.722 1.263 1.727 1.499 1.711 5.565-.363 2.336-1.192 4.077-2.677 3.868-3.302-.568-1.706-4.893-4.581-8.002-5.32-2.643-.628-2.75-.502-2.75 3.263m-11.25-.128c-3.622 1.965-3.477 4.001.428 6.02 2.988 1.545 3.256 1.536 4.5-.166.727-.994 1.322-3.072 1.322-4.617 0-3.241-1.874-3.611-6.25-1.237M128.1 53c-.038 2.475.349 5.162.861 5.971 1.674 2.647 1.892.632.538-4.971l-1.329-5.5-.07 4.5m-48.792-1.069c-.544 2.08-2.916 3.429-4.407 2.508-1.459-.902-4.901.558-4.901 2.079 0 .76-.724 1.788-1.609 2.283-1.468.822-1.462.958.063 1.543 1.851.71 7.546-1.833 7.546-3.37 0-.536.935-.974 2.077-.974s3.427-1.35 5.077-3l3-3h-3.171c-2.291 0-3.31.535-3.675 1.931M174 50.548c0 1.381 5.735 5.392 7.75 5.42 1.238.018 2.25.635 2.25 1.371 0 1.972 4.773 3.888 6.82 2.739 1.561-.877 1.556-.991-.07-1.618-.963-.371-1.75-1.253-1.75-1.96 0-1.482-2.74-2.778-4.099-1.939-1.594.985-4.664-.547-5.199-2.594-.345-1.318-1.37-1.967-3.108-1.967-1.427 0-2.594.247-2.594.548m-86.5 2.67c-1.1.636-2.82 2.197-3.823 3.469C82.675 57.959 81.065 59 80.101 59c-1.379 0-1.661.64-1.316 2.988.31 2.113-.034 3.17-1.173 3.607-.953.366-1.612 1.767-1.612 3.429 0 1.545-.515 2.981-1.144 3.191-.854.284-.841 1.3.049 3.998 1.133 3.433 1.319 3.552 3.649 2.344 1.35-.701 3.556-2.463 4.902-3.915C84.803 73.189 86.826 72 87.952 72 89.079 72 90 71.36 90 70.577s1.061-2.696 2.358-4.25c1.671-2.003 2.355-4.065 2.346-7.077-.006-2.337-.106-4.25-.22-4.25-1.174 0-8.724 7.204-11.696 11.16-4.991 6.642-4.904 4.719.101-2.247 2.139-2.977 5.964-6.716 8.5-8.308C93.925 54.013 96 52.55 96 52.355c0-.862-6.693-.183-8.5.863m76.5-.577c0 .497 1.605 1.768 3.566 2.824 4.425 2.383 8.795 7.278 11.439 12.813 1.109 2.322 1.449 3.362.756 2.311-3.521-5.334-9.648-12.001-12.761-13.885-2.929-1.773-2.562-1.184 2.25 3.61 3.162 3.151 5.75 6.169 5.75 6.707 0 2.224-2.182.684-5.694-4.021-2.053-2.75-4.009-5-4.346-5-1.3 0 .399 6.359 2.173 8.133C168.16 67.16 169 68.9 169 70c0 1.348.667 2 2.045 2 1.125 0 3.263 1.236 4.75 2.747 2.563 2.602 7.198 5.6 7.765 5.021.144-.147.577-1.955.962-4.018.498-2.667.348-3.75-.519-3.75-.794 0-1.006-.852-.607-2.44.453-1.806.055-2.831-1.529-3.941-1.681-1.177-2.011-2.147-1.538-4.515.473-2.362.292-2.896-.832-2.464-.832.319-2.654-.784-4.333-2.622-2.058-2.253-4.097-3.333-7.031-3.727-2.273-.305-4.133-.147-4.133.35m-22.363 2.824c-4.338 1.546-9.11 5.685-11.226 9.735-1.702 3.258-1.927 9.237-.31 8.238.605-.374.858-1.894.561-3.378-.348-1.738.148-3.74 1.393-5.629 1.803-2.736 1.932-2.781 1.938-.681.004 1.237.476 2.25 1.049 2.25s-.102 1.952-1.5 4.338c-2.614 4.46-3.177 8.11-1.63 10.554 1.561 2.465 9.493.786 15.671-3.316 5.887-3.909 11.689-11.699 11.203-15.043-.157-1.081-1.491-2.64-2.963-3.464-2.392-1.338-3.217-1.325-7.753.126-6.231 1.992-5.794.629.578-1.805 3.778-1.442 4.281-1.903 2.74-2.508-2.817-1.106-5.455-.948-9.751.583M88.428 62.18c-3.208 3.43-4.394 5.331-3.51 5.626.734.245 2.515-1.06 3.958-2.9C91.422 61.661 94.194 57 93.578 57c-.168 0-2.485 2.331-5.15 5.18m56.771-.592c-5.548 2.765-11.881 9.298-12.883 13.29-.828 3.3.796 5.556 4.285 5.949 2.34.264 2.658.081 1.649-.95-1.754-1.792-1.566-3.206.831-6.253l2.081-2.645 1.856 2.26c1.503 1.83 2.202 2.051 3.669 1.159.997-.606 1.938-2.181 2.09-3.5.247-2.142.159-2.205-.831-.593-.87 1.419-1.409 1.555-2.516.637-1.887-1.566-.876-2.942 2.16-2.942 3.032 0 3.969 2.072 2.341 5.172l-1.222 2.328 2.253-2c5.554-4.929 7.92-10.475 5.501-12.895-2.265-2.264-5.274-2.002-11.264.983m-73.977 1.017C64.936 67.559 62.608 75.578 65.009 84c1.626 5.7 2.188 6.176 5.807 4.914 3.594-1.253 3.589-1.243 2.08-4.23-.91-1.8-.641-1.703 1.53.554 1.448 1.507 3.703 3.007 5.011 3.335 4.698 1.18 8.905-3.437 6.654-7.303-.866-1.488-1.035-1.269-1.061 1.373C85.002 85.53 83.623 87 80.943 87c-.491 0-.667-1.463-.391-3.25.431-2.796.362-2.935-.493-1-1.595 3.609-3.979 2.686-6.235-2.415-2.334-5.275-2.047-12.82.644-16.926 2.804-4.281 1.558-4.589-3.246-.804m113.886 1.106c2.574 5.051 2.528 13.734-.097 18.039-2.287 3.751-5.011 4.322-5.011 1.05 0-1.591-.302-1.898-1.093-1.107-.79.79-.78 1.676.036 3.2.964 1.801.85 2.107-.785 2.107-2.331 0-3.815-1.677-4.426-5-.396-2.154-.478-2.06-.596.679-.337 7.879 8.312 8.554 12.914 1.007 1.068-1.752 1.944-2.724 1.946-2.159.002.566-.717 2.057-1.598 3.315-1.861 2.657-1.487 3.306 2.025 3.51 2.738.159 4.14 2.192 2.776 4.025-2.078 2.791-.557 10.581 1.783 9.134 1.098-.678 1.025-11.511-.078-11.511-.512 0-.25-1.63.583-3.622.832-1.992 1.513-5.142 1.513-7 0-3.981.188-4.038 3.999-1.221 2.408 1.78 3.184 1.936 4.446.888.841-.698 2.115-1.044 2.83-.77.715.275 2.633-.089 4.262-.807 2.516-1.109 2.64-1.318.82-1.387-1.179-.044-2.402-.756-2.719-1.581-.316-.825-1.209-1.5-1.984-1.5-.775 0-1.931-.629-2.568-1.397C202.937 70.219 199 70.526 199 72c0 .742 1.768 1.508 7 3.034l2.5.729-2.55.119c-1.402.065-3.12.681-3.817 1.368-1.016 1.002-1.525.902-2.561-.5-.711-.963-1.974-1.75-2.807-1.75-.898 0-1.77-1.277-2.142-3.133C194.009 68.796 186.312 60 184.239 60c-.563 0-.172 1.67.869 3.711m-129.68.962c.315.82.572 1.915.572 2.434 0 1.236 4.89 3.079 6.132 2.311.595-.368.516-1.137-.206-2.007-.93-1.121-.82-1.411.535-1.411 3.721 0 .638-2.394-3.346-2.599-3.416-.175-4.146.076-3.687 1.272M124 64.3c0 .935-.436 1.7-.969 1.7-.532 0-.709.675-.393 1.5.317.825.948 1.5 1.402 1.5 1.398 0 2.224-4.136 1.059-5.301-.799-.799-1.099-.635-1.099.601m71.5-.467c-.977.977-.479 2.167.906 2.167.914 0 1.224.7.884 2-1.004 3.839 3.915 2.087 6.13-2.183 1.277-2.462 1.25-2.484-3.066-2.484-2.395 0-4.579.225-4.854.5m-87.164 5.734c-.331.862-.092 2.077.531 2.7.844.844 1.133.521 1.133-1.267 0-1.867.267-2.133 1.2-1.2 1.633 1.633 2.8 1.508 2.8-.3 0-2.031-4.881-1.973-5.664.067M94 70.916c0 1.168-1.172 2.435-3 3.244-3.412 1.51-3.625 2.076-1.463 3.871.845.701 1.434 1.994 1.308 2.872C90.53 83.105 91.937 87 93.048 87c.503 0 1.21-1.237 1.571-2.75.362-1.513.888-3.154 1.169-3.647.467-.818.622-5.47.329-9.853-.16-2.386-2.117-2.232-2.117.166m69.226.487c-.601 1.319-.785 2.705-.409 3.08.376.376.737 2.624.803 4.996.066 2.372.801 5.284 1.633 6.472 1.507 2.151 1.517 2.146 2.63-1.045.614-1.762 1.117-4.037 1.117-5.055 0-1.018.45-1.851 1-1.851 1.886 0 1-2.526-1.232-3.513-1.228-.543-2.731-1.998-3.341-3.234l-1.109-2.247-1.092 2.397m-107.894.175c-.3.782-1.398 1.422-2.439 1.422-2.647 0-2.372 1.769.357 2.294 1.237.239.248.495-2.2.57-3.361.103-4.168.418-3.296 1.29.634.634 2.627 1.111 4.428 1.06 1.801-.051 3.576.395 3.945.992.385.622 1.461.767 2.522.34 1.712-.69 1.682-.812-.399-1.614-2.37-.914-3.001-3.35-1.163-4.486.598-.369 1.588-.171 2.2.441C60.92 75.52 63 75.243 63 73.393c0-1.018-.55-1.396-1.5-1.031-.825.316-1.5.192-1.5-.277 0-1.557-4.095-2.002-4.668-.507M196 73c0 .55.45 1 1 1s1-.45 1-1-.45-1-1-1-1 .45-1 1M57 75c0 .55.45 1 1 1s1-.45 1-1-.45-1-1-1-1 .45-1 1m143 0c0 .55.45 1 1 1s1-.45 1-1-.45-1-1-1-1 .45-1 1M51.789 82.754c-.709 1.478-2.189 3.151-3.289 3.717-1.1.566-2.072 1.929-2.159 3.029-.087 1.1-.467 3.575-.845 5.5-1.644 8.396-1.655 10.296-.081 14.417 1.649 4.317 7.964 11.611 10.002 11.551.596-.017-.042-1.055-1.417-2.306-1.375-1.251-3.375-3.281-4.444-4.511-1.665-1.917-1.699-2.143-.237-1.582.938.36 2.381.095 3.206-.59 1.222-1.014 1.266-1.535.237-2.819-.694-.866.355-.356 2.332 1.133C58.818 113.098 61 113.728 61 112c0-.55-.59-1-1.31-1-2.14 0-7.681-6.048-10.329-11.274-2.221-4.383-2.287-4.841-.664-4.584.992.157 3.037-.535 4.545-1.538 1.509-1.003 3.421-1.564 4.25-1.245.925.354 1.508.006 1.508-.9 0-.813.9-2.249 2-3.191C62.788 86.737 63.828 83 62.466 83c-.293 0-1.769 1.264-3.278 2.808-1.51 1.545-3.632 3.143-4.717 3.551-1.182.446-.57-.505 1.529-2.376 3.898-3.474 2.366-3.041-3 .849-3.124 2.265-3.292 2.299-1.566.32 1.064-1.219 3.45-3.153 5.303-4.298 3.85-2.38 3.853-2.359-.448-3.178-2.787-.53-3.382-.255-4.5 2.078m150.307-2.028c-2.315.437-2.24.603 2 4.435 3.689 3.335 3.821 3.564.81 1.41-3.737-2.672-5.468-3.29-4.406-1.571.34.55.19 1-.334 1s-1.211-.675-1.528-1.5c-.83-2.164-2.638-1.845-2.638.465 0 1.08.9 2.446 2 3.035s2 1.94 2 3.004c0 1.312.484 1.747 1.508 1.355.829-.319 2.741.239 4.25 1.239 1.508 1 3.867 1.705 5.242 1.566 1.375-.14 2.05.104 1.5.541-.55.437-2.087 2.955-3.416 5.596-3.364 6.685-7.395 9.884-11.973 9.501-3.456-.289-3.611-.464-3.611-4.072 0-3.262-.168-3.54-1.25-2.059-.687.941-1.25 2.33-1.25 3.086 0 6.162 7.578 7.263 13.715 1.993 2.082-1.787 3.172-2.468 2.423-1.513-1.847 2.356-.679 5.138 1.876 4.47 2.234-.585 1.889.46-1.337 4.043-1.114 1.237-1.5 2.25-.858 2.25 1.846 0 7.068-7.879 7.796-11.763.94-5.007-1.552-20.237-3.31-20.237-.755 0-2.302-1.575-3.438-3.5-1.135-1.925-2.358-3.439-2.716-3.364-.358.075-1.733.34-3.055.59M202 87.883c0 .486.926 1.126 2.057 1.422 1.688.441 1.846.283.878-.884-1.321-1.591-2.935-1.886-2.935-.538M61.95 90.561c-1.511 1.82-2.522 11.549-1.471 14.153.644 1.595.818 1.535 1.623-.556.496-1.289.632-2.78.302-3.313-.33-.534.079-1.73.908-2.658 1.541-1.723 2.118-9.187.71-9.187-.427 0-1.36.702-2.072 1.561m132.824 2.253c-.263 2.245.087 4.19.898 5.001.731.73 1.328 2.871 1.328 4.756 0 1.886.41 3.429.912 3.429 1.62 0 2.276-7.641 1.016-11.846-1.628-5.435-3.602-6.072-4.154-1.34M54.687 95.75C52.96 98.759 56.2 108 58.982 108c.569 0-.464-7.705-1.576-11.75-.378-1.376-2.04-1.681-2.719-.5m146.98-.083c-.367.366-.667 2.421-.667 4.565 0 2.145-.466 4.77-1.035 5.834-1.411 2.635.233 2.442 2.694-.316 3.484-3.903 2.529-13.605-.992-10.083M41.543 97.931a1.086 1.086 0 00.336 1.494c.501.31 1.169-.109 1.485-.931.622-1.62-.881-2.085-1.821-.563M215.5 98c.34.55 1.068 1 1.618 1s.722-.45.382-1c-.34-.55-1.068-1-1.618-1s-.722.45-.382 1m-180.174 5.414c-1.467 1.673.156 3.586 3.041 3.586 1.081 0 1.682-.284 1.335-.631-.347-.348-.182-1.473.368-2.5.843-1.575.64-1.863-1.285-1.831-1.257.021-2.813.64-3.459 1.376m182.707.314c-1.306 1.471-1.279 1.58.25.994 1.142-.439 1.717-.168 1.717.809 0 1.646 1.78 1.894 3.912.544 1.2-.759 1.173-1.133-.178-2.484-2.012-2.012-3.832-1.968-5.701.137M96.5 112c0 6.174.221 7 1.872 7 1.514 0 1.644-.275.682-1.435-.655-.789-1.047-2.926-.872-4.75l.318-3.315 3.42 4.75c1.88 2.612 3.793 4.75 4.25 4.75.456 0 .83-2.438.83-5.418s.273-6.13.607-7c.389-1.013.063-1.582-.905-1.582-1.188 0-1.407.909-1.024 4.25l.489 4.25-3.667-4.25c-2.016-2.338-4.191-4.25-4.833-4.25-.778 0-1.167 2.332-1.167 7m16.023-3.677c-4.832 11.665-4.594 10.677-2.566 10.677 1.36 0 1.717-.532 1.336-1.988-.338-1.293.079-2.218 1.194-2.646 1.894-.726 3.772 1.369 3.034 3.384-.299.815.535 1.25 2.394 1.25h2.853l-2.492-6.25c-3.319-8.329-3.939-8.806-5.753-4.427M122.771 112c1.373 3.85 2.856 7 3.297 7 .442 0 1.382-1.603 2.091-3.563l1.288-3.563 1.096 3.253c1.665 4.947 2.901 4.478 4.897-1.857.999-3.173 2.033-6.332 2.296-7.02.263-.687-.17-1.25-.962-1.25-.938 0-1.441 1.06-1.441 3.033 0 1.669-.508 3.542-1.129 4.163-.838.838-1.3.058-1.794-3.034-.562-3.512-1.032-4.162-3.013-4.162-2.088 0-2.243.275-1.401 2.49.557 1.464.587 3.421.074 4.75-.782 2.022-1.011 1.761-2.179-2.49-1.043-3.793-1.74-4.75-3.46-4.75h-2.155l2.495 7m18.387-1.75a746.55 746.55 0 01-2.679 7c-.466 1.176-.222 1.75.743 1.75.847 0 1.404-.924 1.357-2.25-.056-1.61.49-2.25 1.921-2.25 1.313 0 2.11.773 2.32 2.25.235 1.658.986 2.25 2.857 2.25 2.018 0 2.393-.358 1.833-1.75-.387-.963-1.623-4.112-2.746-7s-2.397-5.25-2.831-5.25c-.434 0-1.683 2.362-2.775 5.25m10.342 1.705V119l3-.079c1.65-.043 2.438-.306 1.75-.583-1.479-.597-1.701-5.338-.25-5.338.55 0 1 .45 1 1s.388 1 .861 1c.474 0 .645-1.135.38-2.522-.385-2.012-.762-2.291-1.862-1.378-1.108.92-1.379.663-1.379-1.311 0-1.351.269-2.725.598-3.053.973-.974 3.402.363 3.402 1.871 0 .766.447 1.393.994 1.393.546 0 .841-1.013.655-2.25-.284-1.886-1.052-2.298-4.744-2.545l-4.405-.294v7.044m-118.75-3.239c-5.424.822-2.057 3.602 4.25 3.51 2.581-.038 2.85.083 1.027.46-1.36.281-3.757 1.592-5.327 2.913L29.847 118h2.454c1.35 0 3.014-.675 3.699-1.5s2.39-1.5 3.789-1.5 2.251-.293 1.893-.651c-.358-.358.13-1.244 1.084-1.968 1.596-1.212 1.552-1.32-.547-1.349-1.255-.018-2.541-.707-2.857-1.532-.572-1.491-1.343-1.582-6.612-.784M40 109c0 .55.45 1 1 1s1-.45 1-1-.45-1-1-1-1 .45-1 1m177 0c0 .55.45 1 1 1s1-.45 1-1-.45-1-1-1-1 .45-1 1m4.792-.37c.93.407.994.923.228 1.846-1.534 1.848 3.171 2.589 5.522.87 2.258-1.652 1.938-1.934-3.042-2.681-2.2-.33-3.419-.346-2.708-.035M36.5 110c.34.55.816 1 1.059 1s.441-.45.441-1-.477-1-1.059-1-.781.45-.441 1m76.138 1.5c-.316.825-.139 1.5.393 1.5.533 0 .969-.675.969-1.5s-.177-1.5-.393-1.5c-.216 0-.652.675-.969 1.5m29.362 0c0 .825.436 1.5.969 1.5.532 0 .709-.675.393-1.5-.317-.825-.753-1.5-.969-1.5-.216 0-.393.675-.393 1.5m73.015-.905c-.021 1.548 3.345 4.405 5.191 4.405.852 0 2.109.675 2.794 1.5s2.294 1.5 3.577 1.5h2.332l-2.353-2.353c-1.293-1.294-4.049-2.628-6.123-2.964-2.074-.337-4.138-1.191-4.587-1.898-.479-.755-.822-.833-.831-.19M53.958 114.55c-1.061 1.279-1.003 1.833.332 3.168 1.49 1.491 1.771 1.428 3.573-.797 1.394-1.721 1.623-2.627.796-3.153-1.81-1.152-3.302-.903-4.701.782m146.632-.696c-.574.93 4.356 3.534 5.163 2.727.272-.272.228-1.189-.098-2.038-.629-1.64-4.179-2.123-5.065-.689m-164.313 4.119c-5.008 3.053-5.953 10.531-.981 7.757 1.212-.677 2.564-1.792 3.004-2.48.44-.687 1.404-1.25 2.143-1.25 1.247 0 3.03-2.86 2.262-3.628-.188-.188-2.046.527-4.13 1.59-3.753 1.913-3.772 1.913-2.027-.015.969-1.071 2.367-1.947 3.107-1.947.74 0 1.345-.45 1.345-1 0-1.461-1.105-1.233-4.723.973M32.5 137v7h4.75c4.521 0 4.749-.133 4.728-2.75l-.022-2.75-1.841 2.394c-2.164 2.814-4.115 2.067-4.115-1.575 0-2.166.233-2.371 1.5-1.319 1.276 1.059 1.488.816 1.421-1.628-.043-1.579-.306-2.309-.583-1.622-.868 2.151-2.338 1.365-2.338-1.25 0-2.914 2.405-3.385 3.875-.758 1.149 2.052 2.642 1.046 1.78-1.199-.406-1.058-1.937-1.543-4.874-1.543H32.5v7m12.534-.25c1.567 3.713 3.212 6.684 3.657 6.604.445-.08 1.892-2.893 3.217-6.25 1.324-3.357 2.825-6.104 3.335-6.104.51 0 .777 2.946.592 6.546l-.335 6.545 4.905-.295c4.21-.254 4.952-.614 5.243-2.546.187-1.238-.108-2.25-.654-2.25-.547 0-.994.627-.994 1.393 0 1.162-1.985 2.607-3.582 2.607-.23 0-.418-1.405-.418-3.122 0-2.663.221-2.939 1.5-1.878 1.271 1.055 1.5.827 1.5-1.5s-.229-2.555-1.5-1.5c-1.268 1.053-1.5.84-1.5-1.378 0-3.034 2.355-3.558 3.92-.872.91 1.563 1.022 1.509 1.05-.5.028-2.119-.372-2.25-6.876-2.25-6.129 0-6.854.2-6.441 1.78.256.978-.061 3.116-.704 4.75l-1.17 2.97-1.377-3.865c-.757-2.127-1.131-4.264-.831-4.75.301-.487-.788-.885-2.419-.885h-2.965l2.847 6.75M67.5 137c0 4.033.427 7 1.007 7 .585 0 .858-1.991.65-4.75l-.357-4.75 3.721 4.734c2.047 2.604 4.117 4.49 4.6 4.191 1.479-.914 1.087-13.425-.42-13.425-.897 0-1.191 1.161-.948 3.75l.351 3.75-3.149-3.75c-4.567-5.439-5.455-4.91-5.455 3.25m11.522-4.25l.022 2.75 2.015-2.5 2.014-2.5-.286 6.752c-.281 6.612-.235 6.752 2.213 6.752s2.494-.14 2.213-6.752l-.286-6.752 2.014 2.5 2.015 2.5.022-2.75C91 130.053 90.884 130 85 130c-5.884 0-6 .053-5.978 2.75m17.478 4.253c0 4.526.398 6.998 1.127 6.998.732-.001.993-1.668.746-4.751l-.381-4.75 1.835 3.748c2.668 5.449 2.929 5.481 5.166.648l2.035-4.396-.391 4.75-.391 4.75h4.365c3.929 0 4.342-.224 4.127-2.247-.176-1.658.351-2.331 2.012-2.569 1.833-.263 2.25.153 2.25 2.246 0 2.357.352 2.57 4.257 2.57h4.257l-.364-4.75-.365-4.75 3.47 4.359c1.909 2.397 3.87 4.319 4.358 4.27.488-.048 1.112-3.023 1.387-6.609.417-5.438.243-6.522-1.049-6.521-1.186.001-1.467.881-1.198 3.751l.351 3.75-3.149-3.75c-4.441-5.289-5.476-4.866-5.465 2.23.006 3.289-.407 6.021-.917 6.071-.51.05-2.02-2.641-3.356-5.98-1.336-3.339-2.792-6.071-3.235-6.071-.444 0-1.859 2.755-3.145 6.121-1.285 3.367-2.787 5.955-3.337 5.75-.55-.204-.996-2.959-.99-6.121.008-4.682-.297-5.75-1.642-5.75-1.004 0-2.33 1.666-3.384 4.25l-1.734 4.25-1.582-4.25c-1.153-3.099-2.135-4.249-3.625-4.248-1.863.003-2.043.621-2.043 7.001m43.749-1.786a1017.63 1017.63 0 01-2.759 7.033c-.501 1.244-.227 1.75.947 1.75.908 0 1.578-.562 1.488-1.25-.361-2.786.172-3.75 2.075-3.75 1.903 0 2.436.964 2.075 3.75-.094.722.94 1.25 2.449 1.25 2.88 0 2.889.18-.404-8.462-1.04-2.729-2.324-5.106-2.854-5.283-.53-.176-1.888 2.057-3.017 4.962m11.974-3.66c-1.654 1.158-2.223 2.559-2.223 5.477 0 4.953 3.11 7.412 8.167 6.46 2.802-.527 3.349-1.074 3.433-3.436.082-2.293-.322-2.808-2.2-2.808-2.018 0-2.227.365-1.705 2.976.501 2.503.306 2.921-1.228 2.625-2.228-.429-3.553-4.875-2.563-8.601.972-3.659 4.734-4.326 6.039-1.07.901 2.247.932 2.253.994.177.103-3.49-4.843-4.512-8.714-1.8M163.5 137v7h4.75c4.454 0 4.75-.163 4.75-2.611v-2.611l-1.838 2.27c-1.041 1.286-2.342 1.959-3 1.552-1.424-.88-1.531-4.254-.162-5.1.55-.34 1-.141 1 .441s.45 1.059 1 1.059 1-1.125 1-2.5-.45-2.5-1-2.5-1 .45-1 1-.45 1-1 1c-1.336 0-1.284-3.706.063-4.539.585-.361 1.935.132 3 1.096 1.859 1.682 1.937 1.666 1.937-.402 0-1.904-.553-2.155-4.75-2.155h-4.75v7m11.108-5.825c.399.646.619 3.796.488 7-.175 4.295.111 5.825 1.09 5.825.953 0 1.258-1.344 1.081-4.75l-.247-4.75 1.697 4.25c.933 2.338 1.981 4.25 2.329 4.25.785 0 2.96-4.661 2.939-6.297-.011-.839-.271-.801-.859.128-.602.949-1.313.159-2.477-2.75-1.317-3.291-2.13-4.081-4.2-4.081-1.711 0-2.325.392-1.841 1.175m10.737.075c-.424.688-.788 3.837-.809 6.999-.034 5.475.083 5.749 2.464 5.75 2.429.001 2.5-.199 2.5-6.999 0-5.907-.264-7-1.691-7-.93 0-2.039.563-2.464 1.25M191.5 137v7h4.75c4.534 0 4.746-.125 4.671-2.75-.046-1.604-.317-2.125-.65-1.25-.596 1.567-2.238 2.958-3.521 2.985-.412.008-.75-1.39-.75-3.107 0-2.663.221-2.939 1.5-1.878 1.271 1.055 1.5.827 1.5-1.5s-.229-2.555-1.5-1.5c-1.268 1.053-1.5.84-1.5-1.378 0-3.034 2.355-3.558 3.92-.872.91 1.563 1.022 1.509 1.05-.5.027-2.022-.452-2.25-4.72-2.25h-4.75v7m11.66 0c-.178 5.193.095 7 1.057 7 .931 0 1.197-1.341.94-4.75l-.357-4.75 3.748 4.768c2.062 2.623 3.881 4.636 4.043 4.474.162-.162.515-3.32.785-7.018.359-4.926.16-6.724-.742-6.724-.82 0-1.115 1.256-.881 3.75l.351 3.75-3.149-3.75c-4.573-5.446-5.514-4.918-5.795 3.25m11.862-4.25l.022 2.75 2.015-2.5 2.014-2.5-.286 6.752c-.281 6.612-.235 6.752 2.213 6.752s2.494-.14 2.213-6.752l-.286-6.752 2.014 2.5 2.015 2.5.022-2.75c.022-2.697-.094-2.75-5.978-2.75-5.884 0-6 .053-5.978 2.75M116 136.441c0 .857.45 1.559 1 1.559s1-.423 1-.941-.45-1.219-1-1.559c-.55-.34-1 .084-1 .941m25 0c0 .857.45 1.559 1 1.559s1-.423 1-.941-.45-1.219-1-1.559c-.55-.34-1 .084-1 .941m-79.5 16.507l-11 .552 12.407.75c14.787.894 119.514.802 133.093-.117l9.5-.642-16-.742c-17.657-.819-110.606-.675-128 .199m161.692 2.879c-1.694.24-2.038.654-1.292 1.553.703.846.568 2.092-.437 4.028-1.061 2.046-1.117 2.677-.208 2.338.685-.255 2.293 1.132 3.574 3.083 1.813 2.762 1.924 3.228.5 2.109-1.006-.791-2.204-2.028-2.662-2.748-.676-1.063-1.284-1.015-3.215.25-3.236 2.12-6.167 1.961-7.432-.403-.65-1.213-1.649-1.733-2.619-1.361-1.265.486-1.311.766-.235 1.448 1.032.654.951.849-.357.861-.93.008-1.969-.435-2.309-.985-1.283-2.075-2.544-.949-1.4 1.25.644 1.238.825 1.928.403 1.534-1.188-1.107-4.503 3.726-4.503 6.565 0 1.393-.441 2.805-.98 3.138-.617.382-.534 1.318.225 2.534.942 1.509.938 2.196-.02 3.154-.674.674-1.225 3.16-1.225 5.525 0 5.736 2.076 5.669 6.213-.2 1.745-2.475 3.535-4.5 3.98-4.5.444 0 .807-1.098.807-2.441 0-1.343.481-2.738 1.068-3.101.588-.363.804-1.35.48-2.193-.324-.844-.293-3.108.068-5.032.543-2.895.822-3.203 1.616-1.783.528.943.678 3.218.333 5.054-.359 1.914-.186 3.612.404 3.977.567.35 1.045 1.398 1.062 2.328.018.93 1.121 2.483 2.453 3.452 2.419 1.759 2.422 1.758 3.068-1.685.355-1.895.338-3.945-.039-4.555-.377-.61-.14-1.765.525-2.567.704-.848.961-2.708.614-4.444l-.597-2.984 3.708 1.987c2.039 1.093 4.052 1.987 4.472 1.987 1.309 0 .839-2.783-.735-4.357-.825-.825-1.5-1.957-1.5-2.515s-.993-1.71-2.206-2.56c-2.098-1.469-2.118-1.611-.406-2.863 2.586-1.89 1.75-5.295-1.196-4.878m-188.749 2.802c.394 1.568 1.169 3.131 1.724 3.474 1.738 1.074.444 5.098-2.167 6.737l-2.5 1.569 2.25-2.519c2.572-2.88 2.964-5.101.75-4.252-.825.317-1.5 1.019-1.5 1.561s-.9 2.13-2 3.528c-1.1 1.399-2 2.927-2 3.396 0 1.189 4.283.618 5.5-.733.55-.611 1.798-1.388 2.773-1.728 1.514-.527 1.615-.322.695 1.398-.612 1.144-.744 2.972-.305 4.228.426 1.216.823 3.112.884 4.212.061 1.1.188 3.528.282 5.396l.171 3.396 2.25-2.504c4.068-4.528 4.931-6.758 4.227-10.923-.394-2.331-.229-4.459.405-5.223.842-1.014.437-1.196-1.906-.852-1.735.255-3.039-.027-3.126-.677a53.99 53.99 0 01-.25-2.363c-.055-.687-.918-2.068-1.917-3.067-1.452-1.452-1.574-2.109-.607-3.274 1.4-1.688 1.252-1.905-1.962-2.895-2.222-.685-2.337-.539-1.671 2.115M219 160c0 .55.45 1 1 1s1-.45 1-1-.45-1-1-1-1 .45-1 1m-179.5 1c-.34.55-.141 1 .441 1S41 161.55 41 161s-.198-1-.441-1-.719.45-1.059 1m33.3 3.2c.66.66 1.2 2.01 1.2 3 0 2.774 1.435 2.134 2.694-1.2.623-1.65.721-3 .219-3s-.913.54-.913 1.2c0 .933-.267.933-1.2 0-.66-.66-1.65-1.2-2.2-1.2-.556 0-.467.533.2 1.2m5.589.23c-.996 2.595.399 4.739 2.857 4.39 1.652-.235 2.254-.987 2.254-2.82 0-1.833-.602-2.585-2.254-2.82-1.353-.192-2.496.308-2.857 1.25m6.761 1.237c-.149 3.142 1.184 4.467 3.6 3.579 1.478-.544 1.706-6.246.25-6.246-.55 0-1 1.125-1 2.5 0 3.379-1.763 3.186-2.284-.25-.397-2.626-.423-2.607-.566.417M91 166c0 3.021 1.401 4.07 2.338 1.75.403-1 .52-1 .583 0 .161 2.541 1.586 1.145 1.789-1.752.18-2.575-.138-2.998-2.25-2.998-2.067 0-2.46.48-2.46 3m8 0c0 3.52.384 3.652 3.148 1.077 2.309-2.151 1.739-4.077-1.207-4.077-1.49 0-1.941.697-1.941 3m6.079.25c.043 1.787.312 2.669.597 1.958.398-.992.844-1.021 1.921-.127 1.153.956 1.403.607 1.403-1.959 0-2.455-.427-3.122-2-3.122-1.606 0-1.984.64-1.921 3.25m5.283-1.75c-.317.825-.317 2.175 0 3 .649 1.692 4.192 2.031 5.143.492.388-.627 1.175-.455 2.088.458.806.806 2.149 1.203 2.985.882 1.822-.7 1.495-3.475-.487-4.136-.969-.322-1.214.042-.782 1.168.346.9.192 1.636-.34 1.636-1.722 0-1.026-3.838.781-4.311 1.317-.344 1.193-.486-.5-.573-1.237-.064-2.25.424-2.25 1.084 0 .933-.267.933-1.2 0-1.67-1.67-4.748-1.5-5.438.3m12.653 1.75c.011 2.202.293 2.813.875 1.893.72-1.136.996-1.137 1.692-.01.615.995.998.697 1.468-1.143.797-3.127.341-3.99-2.109-3.99-1.526 0-1.938.694-1.926 3.25m5.96-.685c-.536 1.411-.975 2.665-.975 2.788 0 .122 1.8.294 4 .382 2.2.087 4-.192 4-.621 0-.43.675-.781 1.5-.781s1.5.375 1.5.834c0 .458.45.833 1 .833s1-1.35 1-3c0-3.05-2.322-4.267-3.338-1.75-.403 1-.52 1-.583 0-.165-2.618-3.079-1.234-3.158 1.5l-.079 2.75-1.004-2.75c-1.256-3.44-2.601-3.504-3.863-.185m15.414-1.135c-.996 2.595.399 4.739 2.857 4.39 1.652-.235 2.254-.987 2.254-2.82 0-1.833-.602-2.585-2.254-2.82-1.353-.192-2.496.308-2.857 1.25m6.761 1.213c-.16 3.363 1.814 4.993 3.728 3.079 1.391-1.391 1.484-5.722.122-5.722-.55 0-1 1.125-1 2.5 0 3.379-1.763 3.186-2.284-.25-.4-2.645-.422-2.63-.566.393m5.85.287c0 3.078 1.393 4.162 2.338 1.82.403-1 .52-1 .583 0 .161 2.544 1.67 1.151 1.625-1.5-.035-2.073-.6-2.829-2.296-3.07-1.914-.271-2.25.139-2.25 2.75m8 .07c0 3.52.384 3.652 3.148 1.077 2.309-2.151 1.739-4.077-1.207-4.077-1.49 0-1.941.697-1.941 3m6.15-.333c-.164 3.465 1.335 4.585 4.178 3.121 1.006-.518 2.468-.696 3.25-.396 1.571.602 1.68.171.792-3.142-.793-2.959-2.189-2.855-3.37.25-1.27 3.341-3.762 3.196-4.284-.25-.397-2.626-.423-2.607-.566.417M181 166c0 3.021 1.401 4.07 2.338 1.75.403-1 .52-1 .583 0 .043.688.754 1.25 1.579 1.25 1 0 1.5-1 1.5-3 0-3.247-1.567-4.095-2.311-1.25-.435 1.667-.463 1.667-.573 0-.21-3.171-3.116-2.005-3.116 1.25m34-2.059c0 .518.45 1.219 1 1.559.55.34 1-.084 1-.941s-.45-1.559-1-1.559-1 .423-1 .941m-172.771 1.247c.618 1.854 2.771 2.161 2.771.395 0-.87-.712-1.583-1.583-1.583s-1.406.534-1.188 1.188M80 166c0 1.1.45 2 1 2s1-.9 1-2-.45-2-1-2-1 .9-1 2m26-1c0 .55.45 1 1 1s1-.45 1-1-.45-1-1-1-1 .45-1 1m6 1c0 1.1.45 2 1 2s1-.9 1-2-.45-2-1-2-1 .9-1 2m12-1c0 .55.45 1 1 1s1-.45 1-1-.45-1-1-1-1 .45-1 1m22 1c0 1.1.45 2 1 2s1-.9 1-2-.45-2-1-2-1 .9-1 2m47.208 4.347c-1.75 1.29-2.941 2.587-2.646 2.881.884.885 8.827-1.384 10.438-2.982 1.33-1.319 1.192-1.433-1.22-1.011-1.496.262-2.482.091-2.191-.379.992-1.605-1.194-.861-4.381 1.491M207 172.341c0 1.838-.658 5.529-1.463 8.203-1.778 5.907-1.35 6.966.707 1.747 2.067-5.243 3.167-13.291 1.817-13.291-.583 0-1.061 1.503-1.061 3.341m9.656 1.159c.335 2.2.775 4.188.977 4.417.757.859.19-4.497-.68-6.417-.631-1.394-.721-.788-.297 2m-175.1 1.056c-.377 2.006-.485 3.848-.241 4.093.245.244.753-1.198 1.129-3.205.377-2.006.485-3.848.241-4.093-.245-.244-.753 1.198-1.129 3.205m163.134-2.806c-.235.412-.721 2.55-1.079 4.75-.773 4.739.794 2.697 1.726-2.25.58-3.074.299-4.159-.647-2.5M48.4 178.5c0 1.925.36 3.5.8 3.5.44 0 .8.623.8 1.384 0 1.694 7.495 8.616 9.33 8.616 1.474 0 1.108-5.632-.497-7.653-.587-.737-.451-1.309.375-1.587 1.046-.352 1.038-.743-.044-2.054-2.335-2.828-.469-3.703 4.611-2.162 6.073 1.843 5.968 1.876 3.254-1.013-1.276-1.358-2.682-2.245-3.125-1.972-.443.274-2.444.56-4.447.635-3.458.13-3.612.281-3.064 3.021.355 1.773.197 2.65-.408 2.276-.542-.335-.985-1.456-.985-2.491 0-1.749-1.676-3.657-2.494-2.839-.198.198.473 2.831 1.493 5.85 1.399 4.145 1.489 4.999.368 3.489-.817-1.1-2.002-3.912-2.634-6.25-1.389-5.142-3.333-5.58-3.333-.75m-3.4 4.606c0 .608-1.079 2.388-2.398 3.955-2.229 2.65-2.306 3.115-1.099 6.644.871 2.545 1.99 3.9 3.4 4.115 1.156.176 2.566 1.188 3.134 2.25.569 1.061 1.959 1.93 3.09 1.93 1.132 0 3.202.9 4.6 2 2.857 2.247 6.882 2.785 5.61.75-.429-.687-.876-1.88-.992-2.65-.117-.77-.708-1.706-1.313-2.08-.606-.375-2.114-2.575-3.352-4.889-2.574-4.811-8.812-13.037-9.93-13.093-.413-.021-.75.46-.75 1.068m164.518 3.102c-2.04 2.361-4.136 5.192-4.657 6.292-1.694 3.578-3.503 6.446-5.355 8.493-.999 1.104-1.388 2.007-.864 2.007 1.371 0 7.801-6.896 10.257-11 1.151-1.925 2.095-3.026 2.097-2.446.009 2.473-6.221 10.567-10.12 13.146-5.108 3.381-2.798 4.651 2.502 1.375 1.847-1.141 4.317-2.075 5.49-2.075s2.132-.631 2.132-1.402c0-.771 1.238-1.834 2.75-2.361 1.855-.647 3.18-2.15 4.072-4.618 1.254-3.47 1.169-3.866-1.636-7.681l-2.958-4.022-3.71 4.292m-104.112 1.944c-.391.633.032 1.695.941 2.36 1.764 1.289 2.334 3.027.653 1.988-.55-.34-1-.16-1 .401 0 .56 1.349.924 2.998.809 2.684-.188 2.998-.557 3-3.519.001-2.129-.386-3.069-1.085-2.637-.598.369-.872 1.494-.609 2.499.41 1.569.21 1.66-1.413.647-2.197-1.372-2.399-2.328-.641-3.038.77-.31.6-.534-.441-.583-.93-.043-2.011.439-2.403 1.073M113 190.5c0 1.925.45 3.5 1 3.5s1.014-.787 1.03-1.75c.029-1.667.079-1.667 1.05 0 1.633 2.803 2.92 2.031 2.92-1.75 0-1.925-.45-3.5-1-3.5s-1.014.787-1.03 1.75c-.029 1.667-.079 1.667-1.05 0-1.633-2.803-2.92-2.031-2.92 1.75m7.384-2.058c-.907 2.363.019 5.012 1.877 5.37.957.184 1.739-.148 1.739-.739 0-.59-.675-1.073-1.5-1.073-2.061 0-1.891-2.673.25-3.92 1.658-.966 1.657-1.021-.031-1.05-.98-.016-2.031.619-2.335 1.412m4.803 1.8c.206 2.135.91 3.355 2.063 3.573.963.182 1.75-.178 1.75-.801 0-.622-.45-.854-1-.514-.55.34-1 .141-1-.441s.563-1.066 1.25-1.074c.836-.011.753-.342-.25-1-1.333-.876-1.333-1.094 0-1.97 1.212-.795 1.056-.987-.813-1-2.009-.013-2.272.412-2 3.227m8.813-2.257c1.236.786 1.28 1.308.25 2.971-1.703 2.747-1.599 3.056 1 2.965 1.238-.043 1.691-.305 1.008-.581-.909-.367-.963-1.022-.204-2.441 1.237-2.31.471-3.905-1.863-3.884-1.455.013-1.482.149-.191.97m4.412.383c-1.006 2.621.022 5.132 2.102 5.132 1.538 0 1.986-.674 1.986-2.986 0-3.272-3.043-4.869-4.088-2.146m6.987-.065c1.62 1.184 1.637 1.422.191 2.622-2.09 1.735-2.02 3.075.16 3.073 1.285-.001 1.816-.931 1.999-3.5.215-3.009-.057-3.498-1.941-3.498-2.044 0-2.072.087-.409 1.303m4.146.556c-.838 2.639.417 5.294 2.331 4.932 1.016-.192 1.741-1.521 1.937-3.549.259-2.678-.034-3.242-1.682-3.242-1.098 0-2.262.837-2.586 1.859m-10.209.708c-.331.862-.092 2.077.531 2.7.844.844 1.133.444 1.133-1.567 0-3.009-.749-3.518-1.664-1.133m11.664.374c0 1.132.45 2.059 1 2.059s1-.648 1-1.441-.45-1.719-1-2.059c-.55-.34-1 .309-1 1.441m-86.841.66c-2.273 1.592-4.67 6.222-3.715 7.176.275.275.956-.699 1.513-2.165 1.19-3.129 4.751-4.791 7.349-3.428 3.142 1.647 3.172 3.85.088 6.463-2.713 2.299-2.746 2.411-.526 1.798 3.125-.864 2.471 1.214-1.257 3.994-4.195 3.129-12.192 2.766-17.577-.798-3.182-2.106-3.936-2.33-3.192-.949 5.029 9.332 25.378 15.52 33.917 10.313 4.625-2.82 9.317-11.005 6.308-11.005-.513 0-1.219.902-1.569 2.005-.35 1.103-1.801 3.39-3.224 5.081l-2.587 3.075-1.295-3.081c-1.482-3.523-4.348-4.027-9.028-1.586-1.575.821-3.539 1.496-4.364 1.499-.825.003.375-.923 2.666-2.057 6.957-3.444 9.344-11.017 4.879-15.481-2.853-2.854-5.191-3.092-8.386-.854m123.476.472c-5.465 4.298-1.974 14.609 5.698 16.83 1.973.571 2.413.937 1.167.971-1.1.03-3.125-.588-4.5-1.374-1.375-.786-3.487-1.445-4.693-1.465-2.44-.039-5.595 3.684-4.558 5.378.366.598-.403.382-1.709-.48s-3.155-3.023-4.11-4.802c-.954-1.78-2.113-3.1-2.576-2.933-2.377.855 2.435 8.124 6.909 10.438 4.053 2.096 14.566 1.418 20.804-1.341 4.981-2.204 11.383-7.398 13.122-10.648.939-1.754.616-1.661-2.069.599-3.09 2.599-8.703 4.737-12.469 4.748-2.915.009-8.614-3.056-9.799-5.271-.948-1.771-.823-1.949 1.035-1.463 2.923.765 2.667-1.099-.308-2.23-2.954-1.123-2.463-4.758.809-5.995 2.702-1.022 5.183.294 7.053 3.74 1.24 2.285 1.48 2.402 1.487.725.01-2.439-1.697-4.784-4.612-6.337-2.965-1.579-3.633-1.488-6.681.91M49 190.37c0 2.55 8.25 12.63 10.338 12.63.512 0-.315-.981-1.839-2.179-1.524-1.199-4.059-4.212-5.635-6.696-1.575-2.484-2.864-4.174-2.864-3.755m27.015 8.797c.02 2.924.868 4.208 3.799 5.753 1.793.944 2.637.95 3.75.027 2.142-1.778 1.804-2.521-2.314-5.082-5.284-3.288-5.252-3.283-5.235-.698m102.745.174c-5.484 3.165-4.664 7.662 1.012 5.552 2.555-.95 3.543-2.802 3.057-5.729-.324-1.951-.386-1.948-4.069.177m-90.179 9.21c-1.799 1.328-1.814 1.534-.25 3.262.918 1.014 1.655 2.484 1.637 3.266-.022 1.011-.451.867-1.484-.498-1.357-1.793-1.573-1.811-3.284-.262-1.007.911-3.251 1.941-4.987 2.288-2.856.572-3.048.834-2.018 2.762 1.747 3.273 6.803 7.631 8.852 7.631 1.009 0 2.08.396 2.378.879.928 1.501 4.797 2.143 4.245.704-.594-1.547 4.458-.857 5.504.752.45.693 1.178.618 2.194-.226 1.254-1.04 1.82-.912 3.226.73 1.391 1.624 2.046 1.778 3.556.836 1.375-.859 2.312-.867 3.649-.032 1.373.857 2.249.795 3.692-.26 1.04-.761 2.705-1.383 3.7-1.383 2.311 0 2.303-1.243-.02-3.345-2.025-1.833-3.827-2.141-4.338-.741-.428 1.174-13.833.112-13.833-1.096 0-.826 2.411-.631 10.249.829 2.206.41 2.629.199 2.143-1.068-.333-.868-1.66-1.579-2.949-1.579s-2.768-.758-3.287-1.685c-.883-1.578-1.108-1.577-3.549.023-1.434.94-2.614 1.36-2.622.935-.008-.425-.582.348-1.275 1.718-1.582 3.128-4.286 3.702-6.784 1.442-2.529-2.288-2.435-4.09.287-5.547l2.213-1.184-2.213-.819c-2.626-.971-2.969-3.869-.463-3.914.963-.018 2.612-1.214 3.666-2.659l1.916-2.626-3.02.604c-1.661.332-3.423.208-3.916-.275-.517-.507-1.708-.279-2.815.538m78.918-.55c-.342.553-1.719.731-3.06.394-2.658-.667-3.058.245-1.157 2.639 2.339 2.946 8.632 2.043 8.703-1.249.028-1.329-3.82-2.86-4.486-1.784m3.748 6.522c-.514.918-2.097 1.738-3.518 1.823-2.289.136-2.421.335-1.157 1.733 2.642 2.921 1.159 7.921-2.349 7.921-.757 0-2.688-1.311-4.29-2.913-2.132-2.133-3.775-2.87-6.127-2.75-2.901.147-3.387.646-4.986 5.119-1.933 5.408-1.15 7.145 2.68 5.942 1.1-.346 3.215-.689 4.7-.763 1.485-.074 3.263-.697 3.95-1.385 1.482-1.482 6.249-1.705 5.35-.25-.915 1.481.837 1.213 3.059-.468 1.067-.808 2.845-1.483 3.95-1.5 1.106-.018 2.572-.932 3.259-2.032.687-1.1 1.868-2 2.624-2s1.653-.787 1.992-1.75c.34-.963.86-2.253 1.156-2.867.313-.651-.808-1.387-2.685-1.762-1.773-.355-4-1.347-4.949-2.206-1.566-1.417-1.811-1.408-2.659.108m-12.58.144c-1.334 1.334-.622 5.136 1.083 5.785 1.403.534 1.502.417.5-.593-.687-.692-1.25-1.83-1.25-2.528 0-.697.563-1.131 1.25-.964.688.168.91.116.494-.116-.416-.232-.502-.833-.191-1.336.648-1.05-.884-1.251-1.886-.248m-61.157 2.349c.346.559 1.047.758 1.559.441 1.387-.857 1.129-1.457-.628-1.457-.857 0-1.276.457-.931 1.016m-30.26 2.563c0 1.419.619 2.817 1.375 3.107.756.291 1.383 1.042 1.392 1.671.01.629 1.135 2.203 2.5 3.498 1.366 1.295 2.483 2.758 2.483 3.25s.482.895 1.072.895c.589 0 .972-1.012.851-2.25s.123-3.046.542-4.018c.93-2.156-1.301-7.96-2.852-7.421-.612.213-.982 1.918-.822 3.788.22 2.576.042 3.037-.735 1.901-.564-.825-1.032-2.272-1.041-3.215-.008-.943-.885-2.18-1.949-2.75-2.686-1.437-2.816-1.366-2.816 1.544m72.126-1.493c-5.262 1.526-7.109 5.914-2.488 5.914 1.61 0 11.112-5.638 11.112-6.594 0-.693-5.342-.271-8.624.68m50.437-.3c-.928.185-2.13 1.546-2.671 3.025l-.984 2.689-.079-2.75c-.104-3.626-1.646-3.489-3.616.322-1.232 2.382-1.325 3.389-.414 4.487.646.779.914 2.096.594 2.928-.319.832-.325 2.178-.014 2.99.394 1.025 1.932-.377 5.028-4.583 4.474-6.078 5.342-9.744 2.156-9.108M88.17 222.015c1.203 1.628 2.369 2.779 2.59 2.558.714-.714-1.657-4.32-3.242-4.928-1.099-.422-.914.253.652 2.37m56.669-.056c-1.286 1.628-3.836 5.367-5.666 8.308-1.83 2.942-4.181 5.881-5.224 6.533-1.334.833-.979-.118 1.199-3.207 3.444-4.887 3.144-6.593-1.16-6.593-2.107 0-4.103 1.225-7.335 4.504-2.581 2.617-5.741 4.764-7.546 5.125-1.709.341-3.107.982-3.107 1.424 0 1.446 10.592 2.236 12.964.966 1.214-.65 2.451-.938 2.748-.64 2.039 2.038 11.347-7.017 14.303-13.915 1-2.333 2.419-4.481 3.152-4.774.934-.373.835-.556-.328-.611-.914-.043-2.714 1.253-4 2.88m25.807-1.491c-1.02.773-1.686 1.911-1.481 2.528.212.635 1.42.01 2.779-1.437 2.572-2.737 1.767-3.413-1.298-1.091m-42.84 3.696c-7.423 9.348-9.314 10.829-13.956 10.936-3.524.08-3.875.237-1.85.826 5.724 1.664 11.457-1.7 16.923-9.929 4.553-6.856 3.823-8.054-1.117-1.833M93 222c0 .55.675 1 1.5 1s1.5-.45 1.5-1-.675-1-1.5-1-1.5.45-1.5 1m70 0c0 .55.675 1 1.5 1s1.5-.45 1.5-1-.675-1-1.5-1-1.5.45-1.5 1m-5.283 1.616c-.338.339-2.101 1.006-3.916 1.483-3.216.844-3.2.855.613.42 3.509-.4 7.675-2.519 4.953-2.519-.569 0-1.311.277-1.65.616" fill="#1976D2" fill-rule="evenodd"/></svg>